<mxfile host="Electron" agent="Mozilla/5.0 (X11; Linux x86_64) AppleWebKit/537.36 (KHTML, like Gecko) draw.io/27.0.5 Chrome/134.0.6998.205 Electron/35.3.0 Safari/537.36" version="27.0.5">
  <diagram name="Страница — 1" id="Og2O6v1_8cmMjE4YKY-o">
    <mxGraphModel dx="983" dy="613" grid="1" gridSize="10" guides="1" tooltips="1" connect="1" arrows="1" fold="1" page="1" pageScale="1" pageWidth="1169" pageHeight="827" math="0" shadow="0">
      <root>
        <mxCell id="0" />
        <mxCell id="J4p2vavXGs8pfv7Cpsuk-24" value="BG" parent="0" />
        <mxCell id="IlDslpWlMJQfnDaj4fPr-225" value="" style="rounded=0;whiteSpace=wrap;html=1;fillColor=light-dark(#83eb9f, #1f2f1e);strokeColor=light-dark(#000000, #446e2c);" parent="J4p2vavXGs8pfv7Cpsuk-24" vertex="1">
          <mxGeometry y="255" width="520" height="700" as="geometry" />
        </mxCell>
        <mxCell id="IlDslpWlMJQfnDaj4fPr-229" value="" style="rounded=0;whiteSpace=wrap;html=1;fillColor=light-dark(#86ebf9, #1f2f1e);strokeColor=light-dark(#000000, #446e2c);" parent="J4p2vavXGs8pfv7Cpsuk-24" vertex="1">
          <mxGeometry x="80" y="5" width="170" height="100" as="geometry" />
        </mxCell>
        <mxCell id="IlDslpWlMJQfnDaj4fPr-228" value="" style="rounded=0;whiteSpace=wrap;html=1;fillColor=light-dark(#e0cb9e, #1f2f1e);strokeColor=light-dark(#000000, #446e2c);" parent="J4p2vavXGs8pfv7Cpsuk-24" vertex="1">
          <mxGeometry x="280" y="95" width="190" height="110" as="geometry" />
        </mxCell>
        <mxCell id="IlDslpWlMJQfnDaj4fPr-227" value="" style="rounded=0;whiteSpace=wrap;html=1;fillColor=light-dark(#f785fa, #1f2f1e);strokeColor=light-dark(#000000, #446e2c);" parent="J4p2vavXGs8pfv7Cpsuk-24" vertex="1">
          <mxGeometry x="590" y="5" width="310" height="220" as="geometry" />
        </mxCell>
        <mxCell id="IlDslpWlMJQfnDaj4fPr-226" value="" style="rounded=0;whiteSpace=wrap;html=1;fillColor=light-dark(#f7e688, #1f2f1e);strokeColor=light-dark(#000000, #446e2c);" parent="J4p2vavXGs8pfv7Cpsuk-24" vertex="1">
          <mxGeometry x="570" y="380" width="441" height="545" as="geometry" />
        </mxCell>
        <mxCell id="IlDslpWlMJQfnDaj4fPr-222" value="" style="rounded=0;whiteSpace=wrap;html=1;fillColor=light-dark(#83eb9f, #1f2f1e);strokeColor=light-dark(#000000, #446e2c);" parent="J4p2vavXGs8pfv7Cpsuk-24" vertex="1">
          <mxGeometry x="1017" y="105" width="300" height="360" as="geometry" />
        </mxCell>
        <mxCell id="IlDslpWlMJQfnDaj4fPr-224" value="" style="rounded=0;whiteSpace=wrap;html=1;fillColor=light-dark(#83eb9f, #1f2f1e);strokeColor=light-dark(#000000, #446e2c);" parent="J4p2vavXGs8pfv7Cpsuk-24" vertex="1">
          <mxGeometry x="1017" y="5" width="170" height="83.75" as="geometry" />
        </mxCell>
        <mxCell id="J4p2vavXGs8pfv7Cpsuk-8" value="AS 1001" style="text;html=1;align=center;verticalAlign=middle;whiteSpace=wrap;rounded=0;fontSize=18;" parent="J4p2vavXGs8pfv7Cpsuk-24" vertex="1">
          <mxGeometry y="255" width="84" height="30" as="geometry" />
        </mxCell>
        <mxCell id="J4p2vavXGs8pfv7Cpsuk-1" value="Москва" style="text;html=1;align=center;verticalAlign=middle;whiteSpace=wrap;rounded=0;fontSize=18;" parent="J4p2vavXGs8pfv7Cpsuk-24" vertex="1">
          <mxGeometry x="220" y="915" width="60" height="30" as="geometry" />
        </mxCell>
        <mxCell id="J4p2vavXGs8pfv7Cpsuk-12" value="AS 2042" style="text;html=1;align=center;verticalAlign=middle;whiteSpace=wrap;rounded=0;fontSize=18;" parent="J4p2vavXGs8pfv7Cpsuk-24" vertex="1">
          <mxGeometry x="580" y="380" width="84" height="30" as="geometry" />
        </mxCell>
        <mxCell id="J4p2vavXGs8pfv7Cpsuk-14" value="AS 101" style="text;html=1;align=center;verticalAlign=middle;whiteSpace=wrap;rounded=0;fontSize=18;" parent="J4p2vavXGs8pfv7Cpsuk-24" vertex="1">
          <mxGeometry x="70" y="1" width="84" height="30" as="geometry" />
        </mxCell>
        <mxCell id="J4p2vavXGs8pfv7Cpsuk-4" value="Киторн" style="text;html=1;align=center;verticalAlign=middle;whiteSpace=wrap;rounded=0;fontSize=18;" parent="J4p2vavXGs8pfv7Cpsuk-24" vertex="1">
          <mxGeometry x="186" width="60" height="30" as="geometry" />
        </mxCell>
        <mxCell id="J4p2vavXGs8pfv7Cpsuk-15" value="AS 301" style="text;html=1;align=center;verticalAlign=middle;whiteSpace=wrap;rounded=0;fontSize=18;" parent="J4p2vavXGs8pfv7Cpsuk-24" vertex="1">
          <mxGeometry x="282" y="95" width="84" height="30" as="geometry" />
        </mxCell>
        <mxCell id="J4p2vavXGs8pfv7Cpsuk-5" value="Ламас" style="text;html=1;align=center;verticalAlign=middle;whiteSpace=wrap;rounded=0;fontSize=18;" parent="J4p2vavXGs8pfv7Cpsuk-24" vertex="1">
          <mxGeometry x="410" y="95" width="60" height="30" as="geometry" />
        </mxCell>
        <mxCell id="J4p2vavXGs8pfv7Cpsuk-13" value="AS 520" style="text;html=1;align=center;verticalAlign=middle;whiteSpace=wrap;rounded=0;fontSize=18;" parent="J4p2vavXGs8pfv7Cpsuk-24" vertex="1">
          <mxGeometry x="580" y="1" width="84" height="30" as="geometry" />
        </mxCell>
        <mxCell id="J4p2vavXGs8pfv7Cpsuk-6" value="Триада" style="text;html=1;align=center;verticalAlign=middle;whiteSpace=wrap;rounded=0;fontSize=18;" parent="J4p2vavXGs8pfv7Cpsuk-24" vertex="1">
          <mxGeometry x="710" y="88.75" width="60" height="30" as="geometry" />
        </mxCell>
        <mxCell id="J4p2vavXGs8pfv7Cpsuk-7" value="С.-Петербург" style="text;html=1;align=center;verticalAlign=middle;whiteSpace=wrap;rounded=0;fontSize=18;" parent="J4p2vavXGs8pfv7Cpsuk-24" vertex="1">
          <mxGeometry x="728" y="880" width="130" height="30" as="geometry" />
        </mxCell>
        <mxCell id="J4p2vavXGs8pfv7Cpsuk-3" value="Чокурдах" style="text;html=1;align=center;verticalAlign=middle;whiteSpace=wrap;rounded=0;fontSize=18;" parent="J4p2vavXGs8pfv7Cpsuk-24" vertex="1">
          <mxGeometry x="1247" y="105" width="60" height="30" as="geometry" />
        </mxCell>
        <mxCell id="J4p2vavXGs8pfv7Cpsuk-2" value="Лабытнанги" style="text;html=1;align=center;verticalAlign=middle;whiteSpace=wrap;rounded=0;fontSize=18;" parent="J4p2vavXGs8pfv7Cpsuk-24" vertex="1">
          <mxGeometry x="1098" y="5" width="60" height="30" as="geometry" />
        </mxCell>
        <mxCell id="1" value="Main" parent="0" />
        <mxCell id="IlDslpWlMJQfnDaj4fPr-3" value="" style="group" parent="1" vertex="1" connectable="0">
          <mxGeometry x="130" y="755" width="70" height="44" as="geometry" />
        </mxCell>
        <mxCell id="f9OrkrOD7GsaYfjVP4bd-2" value="" style="shape=mxgraph.cisco.switches.workgroup_switch;sketch=0;html=1;pointerEvents=1;dashed=0;fillColor=#036897;strokeColor=#ffffff;strokeWidth=2;verticalLabelPosition=bottom;verticalAlign=top;align=center;outlineConnect=0;" parent="IlDslpWlMJQfnDaj4fPr-3" vertex="1">
          <mxGeometry width="70" height="40" as="geometry" />
        </mxCell>
        <mxCell id="f9OrkrOD7GsaYfjVP4bd-8" value="&lt;b&gt;&lt;font color=&quot;#ffffff&quot; style=&quot;font-size: 14px;&quot;&gt;SW3&lt;/font&gt;&lt;/b&gt;" style="text;html=1;align=center;verticalAlign=middle;whiteSpace=wrap;rounded=0;" parent="IlDslpWlMJQfnDaj4fPr-3" vertex="1">
          <mxGeometry y="14" width="60" height="30" as="geometry" />
        </mxCell>
        <mxCell id="IlDslpWlMJQfnDaj4fPr-5" value="" style="group" parent="1" vertex="1" connectable="0">
          <mxGeometry x="132.5" y="435" width="60" height="47.5" as="geometry" />
        </mxCell>
        <mxCell id="f9OrkrOD7GsaYfjVP4bd-3" value="" style="shape=mxgraph.cisco.routers.router;sketch=0;html=1;pointerEvents=1;dashed=0;fillColor=#036897;strokeColor=#ffffff;strokeWidth=2;verticalLabelPosition=bottom;verticalAlign=top;align=center;outlineConnect=0;" parent="IlDslpWlMJQfnDaj4fPr-5" vertex="1">
          <mxGeometry width="60" height="43" as="geometry" />
        </mxCell>
        <mxCell id="f9OrkrOD7GsaYfjVP4bd-10" value="&lt;b&gt;&lt;font color=&quot;#ffffff&quot; style=&quot;font-size: 14px;&quot;&gt;R12&lt;/font&gt;&lt;/b&gt;" style="text;html=1;align=center;verticalAlign=middle;whiteSpace=wrap;rounded=0;" parent="IlDslpWlMJQfnDaj4fPr-5" vertex="1">
          <mxGeometry y="17.5" width="60" height="30" as="geometry" />
        </mxCell>
        <mxCell id="IlDslpWlMJQfnDaj4fPr-11" value="" style="group" parent="1" vertex="1" connectable="0">
          <mxGeometry x="120" y="865" width="90" height="60" as="geometry" />
        </mxCell>
        <mxCell id="f9OrkrOD7GsaYfjVP4bd-1" value="" style="shape=mxgraph.cisco.computers_and_peripherals.workstation;sketch=0;html=1;pointerEvents=1;dashed=0;fillColor=#036897;strokeColor=#ffffff;strokeWidth=2;verticalLabelPosition=bottom;verticalAlign=top;align=center;outlineConnect=0;" parent="IlDslpWlMJQfnDaj4fPr-11" vertex="1">
          <mxGeometry width="90" height="60" as="geometry" />
        </mxCell>
        <mxCell id="IlDslpWlMJQfnDaj4fPr-10" value="&lt;b&gt;&lt;font color=&quot;#ffffff&quot; style=&quot;font-size: 14px;&quot;&gt;VPC1&lt;/font&gt;&lt;/b&gt;" style="text;html=1;align=center;verticalAlign=middle;whiteSpace=wrap;rounded=0;" parent="IlDslpWlMJQfnDaj4fPr-11" vertex="1">
          <mxGeometry x="6" y="4" width="60" height="30" as="geometry" />
        </mxCell>
        <mxCell id="IlDslpWlMJQfnDaj4fPr-15" value="" style="group;fontStyle=4" parent="1" vertex="1" connectable="0">
          <mxGeometry x="130" y="575" width="65" height="64" as="geometry" />
        </mxCell>
        <mxCell id="IlDslpWlMJQfnDaj4fPr-13" value="" style="shape=mxgraph.cisco.switches.layer_3_switch;sketch=0;html=1;pointerEvents=1;dashed=0;fillColor=#036897;strokeColor=#ffffff;strokeWidth=2;verticalLabelPosition=bottom;verticalAlign=top;align=center;outlineConnect=0;" parent="IlDslpWlMJQfnDaj4fPr-15" vertex="1">
          <mxGeometry x="1" width="64" height="64" as="geometry" />
        </mxCell>
        <mxCell id="IlDslpWlMJQfnDaj4fPr-14" value="&lt;b&gt;&lt;font style=&quot;font-size: 14px; color: light-dark(rgb(0, 0, 0), rgb(18, 18, 18));&quot;&gt;SW4&lt;/font&gt;&lt;/b&gt;" style="text;html=1;align=center;verticalAlign=middle;whiteSpace=wrap;rounded=0;" parent="IlDslpWlMJQfnDaj4fPr-15" vertex="1">
          <mxGeometry y="20" width="60" height="30" as="geometry" />
        </mxCell>
        <mxCell id="IlDslpWlMJQfnDaj4fPr-19" value="" style="endArrow=none;html=1;rounded=0;strokeWidth=2;" parent="1" source="IlDslpWlMJQfnDaj4fPr-13" target="f9OrkrOD7GsaYfjVP4bd-3" edge="1">
          <mxGeometry width="50" height="50" relative="1" as="geometry">
            <mxPoint x="200" y="615" as="sourcePoint" />
            <mxPoint x="164.76" y="575" as="targetPoint" />
          </mxGeometry>
        </mxCell>
        <mxCell id="IlDslpWlMJQfnDaj4fPr-22" value="" style="endArrow=none;html=1;rounded=0;strokeWidth=2;" parent="1" source="f9OrkrOD7GsaYfjVP4bd-2" target="IlDslpWlMJQfnDaj4fPr-13" edge="1">
          <mxGeometry width="50" height="50" relative="1" as="geometry">
            <mxPoint x="240" y="849" as="sourcePoint" />
            <mxPoint x="240" y="742" as="targetPoint" />
          </mxGeometry>
        </mxCell>
        <mxCell id="IlDslpWlMJQfnDaj4fPr-23" value="" style="endArrow=none;html=1;rounded=0;strokeWidth=2;" parent="1" source="f9OrkrOD7GsaYfjVP4bd-1" target="f9OrkrOD7GsaYfjVP4bd-2" edge="1">
          <mxGeometry width="50" height="50" relative="1" as="geometry">
            <mxPoint x="230" y="956" as="sourcePoint" />
            <mxPoint x="230" y="849" as="targetPoint" />
          </mxGeometry>
        </mxCell>
        <mxCell id="IlDslpWlMJQfnDaj4fPr-25" value="" style="group" parent="1" vertex="1" connectable="0">
          <mxGeometry x="310" y="755" width="70" height="44" as="geometry" />
        </mxCell>
        <mxCell id="IlDslpWlMJQfnDaj4fPr-26" value="" style="shape=mxgraph.cisco.switches.workgroup_switch;sketch=0;html=1;pointerEvents=1;dashed=0;fillColor=#036897;strokeColor=#ffffff;strokeWidth=2;verticalLabelPosition=bottom;verticalAlign=top;align=center;outlineConnect=0;" parent="IlDslpWlMJQfnDaj4fPr-25" vertex="1">
          <mxGeometry width="70" height="40" as="geometry" />
        </mxCell>
        <mxCell id="IlDslpWlMJQfnDaj4fPr-27" value="&lt;b&gt;&lt;font color=&quot;#ffffff&quot; style=&quot;font-size: 14px;&quot;&gt;SW2&lt;/font&gt;&lt;/b&gt;" style="text;html=1;align=center;verticalAlign=middle;whiteSpace=wrap;rounded=0;" parent="IlDslpWlMJQfnDaj4fPr-25" vertex="1">
          <mxGeometry y="14" width="60" height="30" as="geometry" />
        </mxCell>
        <mxCell id="IlDslpWlMJQfnDaj4fPr-28" value="" style="group" parent="1" vertex="1" connectable="0">
          <mxGeometry x="312.5" y="435" width="60" height="47.5" as="geometry" />
        </mxCell>
        <mxCell id="IlDslpWlMJQfnDaj4fPr-29" value="" style="shape=mxgraph.cisco.routers.router;sketch=0;html=1;pointerEvents=1;dashed=0;fillColor=#036897;strokeColor=#ffffff;strokeWidth=2;verticalLabelPosition=bottom;verticalAlign=top;align=center;outlineConnect=0;" parent="IlDslpWlMJQfnDaj4fPr-28" vertex="1">
          <mxGeometry width="60" height="43" as="geometry" />
        </mxCell>
        <mxCell id="IlDslpWlMJQfnDaj4fPr-30" value="&lt;b&gt;&lt;font color=&quot;#ffffff&quot; style=&quot;font-size: 14px;&quot;&gt;R13&lt;/font&gt;&lt;/b&gt;" style="text;html=1;align=center;verticalAlign=middle;whiteSpace=wrap;rounded=0;" parent="IlDslpWlMJQfnDaj4fPr-28" vertex="1">
          <mxGeometry y="17.5" width="60" height="30" as="geometry" />
        </mxCell>
        <mxCell id="IlDslpWlMJQfnDaj4fPr-31" value="" style="group" parent="1" vertex="1" connectable="0">
          <mxGeometry x="300" y="865" width="90" height="60" as="geometry" />
        </mxCell>
        <mxCell id="IlDslpWlMJQfnDaj4fPr-32" value="" style="shape=mxgraph.cisco.computers_and_peripherals.workstation;sketch=0;html=1;pointerEvents=1;dashed=0;fillColor=#036897;strokeColor=#ffffff;strokeWidth=2;verticalLabelPosition=bottom;verticalAlign=top;align=center;outlineConnect=0;" parent="IlDslpWlMJQfnDaj4fPr-31" vertex="1">
          <mxGeometry width="90" height="60" as="geometry" />
        </mxCell>
        <mxCell id="IlDslpWlMJQfnDaj4fPr-33" value="&lt;b&gt;&lt;font color=&quot;#ffffff&quot; style=&quot;font-size: 14px;&quot;&gt;VPC7&lt;/font&gt;&lt;/b&gt;" style="text;html=1;align=center;verticalAlign=middle;whiteSpace=wrap;rounded=0;" parent="IlDslpWlMJQfnDaj4fPr-31" vertex="1">
          <mxGeometry x="6" y="4" width="60" height="30" as="geometry" />
        </mxCell>
        <mxCell id="IlDslpWlMJQfnDaj4fPr-34" value="" style="group" parent="1" vertex="1" connectable="0">
          <mxGeometry x="310" y="575" width="65" height="64" as="geometry" />
        </mxCell>
        <mxCell id="IlDslpWlMJQfnDaj4fPr-35" value="" style="shape=mxgraph.cisco.switches.layer_3_switch;sketch=0;html=1;pointerEvents=1;dashed=0;fillColor=#036897;strokeColor=#ffffff;strokeWidth=2;verticalLabelPosition=bottom;verticalAlign=top;align=center;outlineConnect=0;" parent="IlDslpWlMJQfnDaj4fPr-34" vertex="1">
          <mxGeometry x="1" width="64" height="64" as="geometry" />
        </mxCell>
        <mxCell id="IlDslpWlMJQfnDaj4fPr-36" value="&lt;b&gt;&lt;font style=&quot;font-size: 14px; color: light-dark(rgb(0, 0, 0), rgb(18, 18, 18));&quot;&gt;SW5&lt;/font&gt;&lt;/b&gt;" style="text;html=1;align=center;verticalAlign=middle;whiteSpace=wrap;rounded=0;" parent="IlDslpWlMJQfnDaj4fPr-34" vertex="1">
          <mxGeometry y="20" width="60" height="30" as="geometry" />
        </mxCell>
        <mxCell id="IlDslpWlMJQfnDaj4fPr-37" value="" style="endArrow=none;html=1;rounded=0;strokeWidth=2;" parent="1" source="IlDslpWlMJQfnDaj4fPr-35" target="IlDslpWlMJQfnDaj4fPr-29" edge="1">
          <mxGeometry width="50" height="50" relative="1" as="geometry">
            <mxPoint x="380" y="615" as="sourcePoint" />
            <mxPoint x="344.76" y="575" as="targetPoint" />
          </mxGeometry>
        </mxCell>
        <mxCell id="IlDslpWlMJQfnDaj4fPr-38" value="" style="endArrow=none;html=1;rounded=0;strokeWidth=2;" parent="1" source="IlDslpWlMJQfnDaj4fPr-26" target="IlDslpWlMJQfnDaj4fPr-35" edge="1">
          <mxGeometry width="50" height="50" relative="1" as="geometry">
            <mxPoint x="420" y="849" as="sourcePoint" />
            <mxPoint x="420" y="742" as="targetPoint" />
          </mxGeometry>
        </mxCell>
        <mxCell id="IlDslpWlMJQfnDaj4fPr-39" value="" style="endArrow=none;html=1;rounded=0;strokeWidth=2;" parent="1" source="IlDslpWlMJQfnDaj4fPr-32" target="IlDslpWlMJQfnDaj4fPr-26" edge="1">
          <mxGeometry width="50" height="50" relative="1" as="geometry">
            <mxPoint x="410" y="956" as="sourcePoint" />
            <mxPoint x="410" y="849" as="targetPoint" />
          </mxGeometry>
        </mxCell>
        <mxCell id="IlDslpWlMJQfnDaj4fPr-40" value="" style="group" parent="1" vertex="1" connectable="0">
          <mxGeometry x="132.5" y="286" width="60" height="47.5" as="geometry" />
        </mxCell>
        <mxCell id="IlDslpWlMJQfnDaj4fPr-41" value="" style="shape=mxgraph.cisco.routers.router;sketch=0;html=1;pointerEvents=1;dashed=0;fillColor=#036897;strokeColor=#ffffff;strokeWidth=2;verticalLabelPosition=bottom;verticalAlign=top;align=center;outlineConnect=0;" parent="IlDslpWlMJQfnDaj4fPr-40" vertex="1">
          <mxGeometry width="60" height="43" as="geometry" />
        </mxCell>
        <mxCell id="IlDslpWlMJQfnDaj4fPr-42" value="&lt;b&gt;&lt;font color=&quot;#ffffff&quot; style=&quot;font-size: 14px;&quot;&gt;R14&lt;/font&gt;&lt;/b&gt;" style="text;html=1;align=center;verticalAlign=middle;whiteSpace=wrap;rounded=0;" parent="IlDslpWlMJQfnDaj4fPr-40" vertex="1">
          <mxGeometry y="17.5" width="60" height="30" as="geometry" />
        </mxCell>
        <mxCell id="IlDslpWlMJQfnDaj4fPr-43" value="" style="group" parent="1" vertex="1" connectable="0">
          <mxGeometry x="312.5" y="285" width="60" height="47.5" as="geometry" />
        </mxCell>
        <mxCell id="IlDslpWlMJQfnDaj4fPr-44" value="" style="shape=mxgraph.cisco.routers.router;sketch=0;html=1;pointerEvents=1;dashed=0;fillColor=#036897;strokeColor=#ffffff;strokeWidth=2;verticalLabelPosition=bottom;verticalAlign=top;align=center;outlineConnect=0;" parent="IlDslpWlMJQfnDaj4fPr-43" vertex="1">
          <mxGeometry width="60" height="43" as="geometry" />
        </mxCell>
        <mxCell id="IlDslpWlMJQfnDaj4fPr-45" value="&lt;b&gt;&lt;font color=&quot;#ffffff&quot; style=&quot;font-size: 14px;&quot;&gt;R15&lt;/font&gt;&lt;/b&gt;" style="text;html=1;align=center;verticalAlign=middle;whiteSpace=wrap;rounded=0;" parent="IlDslpWlMJQfnDaj4fPr-43" vertex="1">
          <mxGeometry y="17.5" width="60" height="30" as="geometry" />
        </mxCell>
        <mxCell id="IlDslpWlMJQfnDaj4fPr-46" value="" style="group" parent="1" vertex="1" connectable="0">
          <mxGeometry x="20" y="435" width="60" height="47.5" as="geometry" />
        </mxCell>
        <mxCell id="IlDslpWlMJQfnDaj4fPr-47" value="" style="shape=mxgraph.cisco.routers.router;sketch=0;html=1;pointerEvents=1;dashed=0;fillColor=#036897;strokeColor=#ffffff;strokeWidth=2;verticalLabelPosition=bottom;verticalAlign=top;align=center;outlineConnect=0;" parent="IlDslpWlMJQfnDaj4fPr-46" vertex="1">
          <mxGeometry width="60" height="43" as="geometry" />
        </mxCell>
        <mxCell id="IlDslpWlMJQfnDaj4fPr-48" value="&lt;b&gt;&lt;font color=&quot;#ffffff&quot; style=&quot;font-size: 14px;&quot;&gt;R19&lt;/font&gt;&lt;/b&gt;" style="text;html=1;align=center;verticalAlign=middle;whiteSpace=wrap;rounded=0;" parent="IlDslpWlMJQfnDaj4fPr-46" vertex="1">
          <mxGeometry y="17.5" width="60" height="30" as="geometry" />
        </mxCell>
        <mxCell id="IlDslpWlMJQfnDaj4fPr-49" value="" style="group" parent="1" vertex="1" connectable="0">
          <mxGeometry x="430" y="435" width="60" height="47.5" as="geometry" />
        </mxCell>
        <mxCell id="IlDslpWlMJQfnDaj4fPr-50" value="" style="shape=mxgraph.cisco.routers.router;sketch=0;html=1;pointerEvents=1;dashed=0;fillColor=#036897;strokeColor=#ffffff;strokeWidth=2;verticalLabelPosition=bottom;verticalAlign=top;align=center;outlineConnect=0;" parent="IlDslpWlMJQfnDaj4fPr-49" vertex="1">
          <mxGeometry width="60" height="43" as="geometry" />
        </mxCell>
        <mxCell id="IlDslpWlMJQfnDaj4fPr-51" value="&lt;b&gt;&lt;font color=&quot;#ffffff&quot; style=&quot;font-size: 14px;&quot;&gt;R20&lt;/font&gt;&lt;/b&gt;" style="text;html=1;align=center;verticalAlign=middle;whiteSpace=wrap;rounded=0;" parent="IlDslpWlMJQfnDaj4fPr-49" vertex="1">
          <mxGeometry y="17.5" width="60" height="30" as="geometry" />
        </mxCell>
        <mxCell id="IlDslpWlMJQfnDaj4fPr-52" value="" style="endArrow=none;html=1;rounded=0;strokeWidth=2;" parent="1" source="IlDslpWlMJQfnDaj4fPr-29" target="IlDslpWlMJQfnDaj4fPr-44" edge="1">
          <mxGeometry width="50" height="50" relative="1" as="geometry">
            <mxPoint x="340" y="412" as="sourcePoint" />
            <mxPoint x="340" y="345" as="targetPoint" />
          </mxGeometry>
        </mxCell>
        <mxCell id="IlDslpWlMJQfnDaj4fPr-53" value="" style="endArrow=none;html=1;rounded=0;strokeWidth=2;" parent="1" source="IlDslpWlMJQfnDaj4fPr-50" target="IlDslpWlMJQfnDaj4fPr-44" edge="1">
          <mxGeometry width="50" height="50" relative="1" as="geometry">
            <mxPoint x="459.86" y="412" as="sourcePoint" />
            <mxPoint x="459.86" y="345" as="targetPoint" />
          </mxGeometry>
        </mxCell>
        <mxCell id="IlDslpWlMJQfnDaj4fPr-54" value="" style="endArrow=none;html=1;rounded=0;strokeWidth=2;" parent="1" source="f9OrkrOD7GsaYfjVP4bd-3" target="IlDslpWlMJQfnDaj4fPr-41" edge="1">
          <mxGeometry width="50" height="50" relative="1" as="geometry">
            <mxPoint x="164.86" y="412" as="sourcePoint" />
            <mxPoint x="164.86" y="345" as="targetPoint" />
          </mxGeometry>
        </mxCell>
        <mxCell id="IlDslpWlMJQfnDaj4fPr-55" value="" style="endArrow=none;html=1;rounded=0;strokeWidth=2;" parent="1" source="IlDslpWlMJQfnDaj4fPr-47" target="IlDslpWlMJQfnDaj4fPr-41" edge="1">
          <mxGeometry width="50" height="50" relative="1" as="geometry">
            <mxPoint x="49.860000000000014" y="412" as="sourcePoint" />
            <mxPoint x="49.860000000000014" y="345" as="targetPoint" />
          </mxGeometry>
        </mxCell>
        <mxCell id="IlDslpWlMJQfnDaj4fPr-56" value="" style="endArrow=none;html=1;rounded=0;strokeWidth=2;" parent="1" source="f9OrkrOD7GsaYfjVP4bd-3" target="IlDslpWlMJQfnDaj4fPr-44" edge="1">
          <mxGeometry width="50" height="50" relative="1" as="geometry">
            <mxPoint x="220" y="412" as="sourcePoint" />
            <mxPoint x="220" y="345" as="targetPoint" />
          </mxGeometry>
        </mxCell>
        <mxCell id="IlDslpWlMJQfnDaj4fPr-57" value="" style="endArrow=none;html=1;rounded=0;strokeWidth=2;" parent="1" source="IlDslpWlMJQfnDaj4fPr-29" target="IlDslpWlMJQfnDaj4fPr-41" edge="1">
          <mxGeometry width="50" height="50" relative="1" as="geometry">
            <mxPoint x="280" y="412" as="sourcePoint" />
            <mxPoint x="210" y="355" as="targetPoint" />
          </mxGeometry>
        </mxCell>
        <mxCell id="IlDslpWlMJQfnDaj4fPr-58" value="" style="endArrow=none;html=1;rounded=0;strokeWidth=2;" parent="1" source="IlDslpWlMJQfnDaj4fPr-13" target="IlDslpWlMJQfnDaj4fPr-29" edge="1">
          <mxGeometry width="50" height="50" relative="1" as="geometry">
            <mxPoint x="290" y="632" as="sourcePoint" />
            <mxPoint x="290" y="565" as="targetPoint" />
          </mxGeometry>
        </mxCell>
        <mxCell id="IlDslpWlMJQfnDaj4fPr-59" value="" style="endArrow=none;html=1;rounded=0;strokeWidth=2;" parent="1" source="IlDslpWlMJQfnDaj4fPr-35" target="f9OrkrOD7GsaYfjVP4bd-3" edge="1">
          <mxGeometry width="50" height="50" relative="1" as="geometry">
            <mxPoint x="220" y="632" as="sourcePoint" />
            <mxPoint x="220" y="565" as="targetPoint" />
          </mxGeometry>
        </mxCell>
        <mxCell id="IlDslpWlMJQfnDaj4fPr-62" value="" style="endArrow=none;html=1;rounded=0;strokeWidth=2;" parent="1" source="IlDslpWlMJQfnDaj4fPr-26" target="IlDslpWlMJQfnDaj4fPr-13" edge="1">
          <mxGeometry width="50" height="50" relative="1" as="geometry">
            <mxPoint x="220" y="762" as="sourcePoint" />
            <mxPoint x="220" y="695" as="targetPoint" />
          </mxGeometry>
        </mxCell>
        <mxCell id="IlDslpWlMJQfnDaj4fPr-63" value="" style="endArrow=none;html=1;rounded=0;strokeWidth=2;" parent="1" source="f9OrkrOD7GsaYfjVP4bd-2" target="IlDslpWlMJQfnDaj4fPr-35" edge="1">
          <mxGeometry width="50" height="50" relative="1" as="geometry">
            <mxPoint x="300" y="755" as="sourcePoint" />
            <mxPoint x="300" y="688" as="targetPoint" />
          </mxGeometry>
        </mxCell>
        <mxCell id="IlDslpWlMJQfnDaj4fPr-64" value="" style="shape=link;html=1;rounded=0;strokeWidth=2;width=12.38095238095238;" parent="1" source="IlDslpWlMJQfnDaj4fPr-13" target="IlDslpWlMJQfnDaj4fPr-35" edge="1">
          <mxGeometry width="100" relative="1" as="geometry">
            <mxPoint x="220" y="665" as="sourcePoint" />
            <mxPoint x="270" y="695" as="targetPoint" />
          </mxGeometry>
        </mxCell>
        <mxCell id="IlDslpWlMJQfnDaj4fPr-118" value="" style="group" parent="1" vertex="1" connectable="0">
          <mxGeometry x="606" y="675" width="70" height="44" as="geometry" />
        </mxCell>
        <mxCell id="IlDslpWlMJQfnDaj4fPr-119" value="" style="shape=mxgraph.cisco.switches.workgroup_switch;sketch=0;html=1;pointerEvents=1;dashed=0;fillColor=#036897;strokeColor=#ffffff;strokeWidth=2;verticalLabelPosition=bottom;verticalAlign=top;align=center;outlineConnect=0;" parent="IlDslpWlMJQfnDaj4fPr-118" vertex="1">
          <mxGeometry width="70" height="40" as="geometry" />
        </mxCell>
        <mxCell id="IlDslpWlMJQfnDaj4fPr-120" value="&lt;b&gt;&lt;font color=&quot;#ffffff&quot; style=&quot;font-size: 14px;&quot;&gt;SW9&lt;/font&gt;&lt;/b&gt;" style="text;html=1;align=center;verticalAlign=middle;whiteSpace=wrap;rounded=0;" parent="IlDslpWlMJQfnDaj4fPr-118" vertex="1">
          <mxGeometry y="14" width="60" height="30" as="geometry" />
        </mxCell>
        <mxCell id="IlDslpWlMJQfnDaj4fPr-121" value="" style="group" parent="1" vertex="1" connectable="0">
          <mxGeometry x="612.5" y="535" width="60" height="47.5" as="geometry" />
        </mxCell>
        <mxCell id="IlDslpWlMJQfnDaj4fPr-122" value="" style="shape=mxgraph.cisco.routers.router;sketch=0;html=1;pointerEvents=1;dashed=0;fillColor=#036897;strokeColor=#ffffff;strokeWidth=2;verticalLabelPosition=bottom;verticalAlign=top;align=center;outlineConnect=0;" parent="IlDslpWlMJQfnDaj4fPr-121" vertex="1">
          <mxGeometry width="60" height="43" as="geometry" />
        </mxCell>
        <mxCell id="IlDslpWlMJQfnDaj4fPr-123" value="&lt;b&gt;&lt;font color=&quot;#ffffff&quot; style=&quot;font-size: 14px;&quot;&gt;R17&lt;/font&gt;&lt;/b&gt;" style="text;html=1;align=center;verticalAlign=middle;whiteSpace=wrap;rounded=0;" parent="IlDslpWlMJQfnDaj4fPr-121" vertex="1">
          <mxGeometry y="17.5" width="60" height="30" as="geometry" />
        </mxCell>
        <mxCell id="IlDslpWlMJQfnDaj4fPr-124" value="" style="group" parent="1" vertex="1" connectable="0">
          <mxGeometry x="596" y="795" width="90" height="60" as="geometry" />
        </mxCell>
        <mxCell id="IlDslpWlMJQfnDaj4fPr-125" value="" style="shape=mxgraph.cisco.computers_and_peripherals.workstation;sketch=0;html=1;pointerEvents=1;dashed=0;fillColor=#036897;strokeColor=#ffffff;strokeWidth=2;verticalLabelPosition=bottom;verticalAlign=top;align=center;outlineConnect=0;" parent="IlDslpWlMJQfnDaj4fPr-124" vertex="1">
          <mxGeometry width="90" height="60" as="geometry" />
        </mxCell>
        <mxCell id="IlDslpWlMJQfnDaj4fPr-126" value="&lt;b&gt;&lt;font color=&quot;#ffffff&quot; style=&quot;font-size: 14px;&quot;&gt;VPC8&lt;/font&gt;&lt;/b&gt;" style="text;html=1;align=center;verticalAlign=middle;whiteSpace=wrap;rounded=0;" parent="IlDslpWlMJQfnDaj4fPr-124" vertex="1">
          <mxGeometry x="6" y="4" width="60" height="30" as="geometry" />
        </mxCell>
        <mxCell id="IlDslpWlMJQfnDaj4fPr-131" value="" style="endArrow=none;html=1;rounded=0;strokeWidth=2;" parent="1" source="IlDslpWlMJQfnDaj4fPr-119" target="IlDslpWlMJQfnDaj4fPr-122" edge="1">
          <mxGeometry width="50" height="50" relative="1" as="geometry">
            <mxPoint x="720" y="849" as="sourcePoint" />
            <mxPoint x="643.6530612244896" y="709" as="targetPoint" />
          </mxGeometry>
        </mxCell>
        <mxCell id="IlDslpWlMJQfnDaj4fPr-132" value="" style="endArrow=none;html=1;rounded=0;strokeWidth=2;" parent="1" source="IlDslpWlMJQfnDaj4fPr-125" target="IlDslpWlMJQfnDaj4fPr-119" edge="1">
          <mxGeometry width="50" height="50" relative="1" as="geometry">
            <mxPoint x="706" y="876" as="sourcePoint" />
            <mxPoint x="706" y="769" as="targetPoint" />
          </mxGeometry>
        </mxCell>
        <mxCell id="IlDslpWlMJQfnDaj4fPr-133" value="" style="group" parent="1" vertex="1" connectable="0">
          <mxGeometry x="786" y="675" width="70" height="44" as="geometry" />
        </mxCell>
        <mxCell id="IlDslpWlMJQfnDaj4fPr-134" value="" style="shape=mxgraph.cisco.switches.workgroup_switch;sketch=0;html=1;pointerEvents=1;dashed=0;fillColor=#036897;strokeColor=#ffffff;strokeWidth=2;verticalLabelPosition=bottom;verticalAlign=top;align=center;outlineConnect=0;" parent="IlDslpWlMJQfnDaj4fPr-133" vertex="1">
          <mxGeometry width="70" height="40" as="geometry" />
        </mxCell>
        <mxCell id="IlDslpWlMJQfnDaj4fPr-135" value="&lt;b&gt;&lt;font color=&quot;#ffffff&quot; style=&quot;font-size: 14px;&quot;&gt;SW10&lt;/font&gt;&lt;/b&gt;" style="text;html=1;align=center;verticalAlign=middle;whiteSpace=wrap;rounded=0;" parent="IlDslpWlMJQfnDaj4fPr-133" vertex="1">
          <mxGeometry y="14" width="60" height="30" as="geometry" />
        </mxCell>
        <mxCell id="IlDslpWlMJQfnDaj4fPr-136" value="" style="group" parent="1" vertex="1" connectable="0">
          <mxGeometry x="792.5" y="535" width="60" height="47.5" as="geometry" />
        </mxCell>
        <mxCell id="IlDslpWlMJQfnDaj4fPr-137" value="" style="shape=mxgraph.cisco.routers.router;sketch=0;html=1;pointerEvents=1;dashed=0;fillColor=#036897;strokeColor=#ffffff;strokeWidth=2;verticalLabelPosition=bottom;verticalAlign=top;align=center;outlineConnect=0;" parent="IlDslpWlMJQfnDaj4fPr-136" vertex="1">
          <mxGeometry width="60" height="43" as="geometry" />
        </mxCell>
        <mxCell id="IlDslpWlMJQfnDaj4fPr-138" value="&lt;b&gt;&lt;font color=&quot;#ffffff&quot; style=&quot;font-size: 14px;&quot;&gt;R16&lt;/font&gt;&lt;/b&gt;" style="text;html=1;align=center;verticalAlign=middle;whiteSpace=wrap;rounded=0;" parent="IlDslpWlMJQfnDaj4fPr-136" vertex="1">
          <mxGeometry y="17.5" width="60" height="30" as="geometry" />
        </mxCell>
        <mxCell id="IlDslpWlMJQfnDaj4fPr-139" value="" style="group" parent="1" vertex="1" connectable="0">
          <mxGeometry x="776" y="795" width="90" height="60" as="geometry" />
        </mxCell>
        <mxCell id="IlDslpWlMJQfnDaj4fPr-140" value="" style="shape=mxgraph.cisco.computers_and_peripherals.workstation;sketch=0;html=1;pointerEvents=1;dashed=0;fillColor=#036897;strokeColor=#ffffff;strokeWidth=2;verticalLabelPosition=bottom;verticalAlign=top;align=center;outlineConnect=0;" parent="IlDslpWlMJQfnDaj4fPr-139" vertex="1">
          <mxGeometry width="90" height="60" as="geometry" />
        </mxCell>
        <mxCell id="IlDslpWlMJQfnDaj4fPr-141" value="&lt;b&gt;&lt;font color=&quot;#ffffff&quot; style=&quot;font-size: 14px;&quot;&gt;VPC6&lt;/font&gt;&lt;/b&gt;" style="text;html=1;align=center;verticalAlign=middle;whiteSpace=wrap;rounded=0;" parent="IlDslpWlMJQfnDaj4fPr-139" vertex="1">
          <mxGeometry x="6" y="4" width="60" height="30" as="geometry" />
        </mxCell>
        <mxCell id="IlDslpWlMJQfnDaj4fPr-146" value="" style="endArrow=none;html=1;rounded=0;strokeWidth=2;" parent="1" source="IlDslpWlMJQfnDaj4fPr-134" target="IlDslpWlMJQfnDaj4fPr-137" edge="1">
          <mxGeometry width="50" height="50" relative="1" as="geometry">
            <mxPoint x="900" y="849" as="sourcePoint" />
            <mxPoint x="823.6530612244896" y="709" as="targetPoint" />
          </mxGeometry>
        </mxCell>
        <mxCell id="IlDslpWlMJQfnDaj4fPr-147" value="" style="endArrow=none;html=1;rounded=0;strokeWidth=2;" parent="1" source="IlDslpWlMJQfnDaj4fPr-140" target="IlDslpWlMJQfnDaj4fPr-134" edge="1">
          <mxGeometry width="50" height="50" relative="1" as="geometry">
            <mxPoint x="886" y="876" as="sourcePoint" />
            <mxPoint x="886" y="769" as="targetPoint" />
          </mxGeometry>
        </mxCell>
        <mxCell id="IlDslpWlMJQfnDaj4fPr-151" value="" style="group" parent="1" vertex="1" connectable="0">
          <mxGeometry x="706" y="405" width="60" height="47.5" as="geometry" />
        </mxCell>
        <mxCell id="IlDslpWlMJQfnDaj4fPr-152" value="" style="shape=mxgraph.cisco.routers.router;sketch=0;html=1;pointerEvents=1;dashed=0;fillColor=#036897;strokeColor=#ffffff;strokeWidth=2;verticalLabelPosition=bottom;verticalAlign=top;align=center;outlineConnect=0;" parent="IlDslpWlMJQfnDaj4fPr-151" vertex="1">
          <mxGeometry width="60" height="43" as="geometry" />
        </mxCell>
        <mxCell id="IlDslpWlMJQfnDaj4fPr-153" value="&lt;b&gt;&lt;font color=&quot;#ffffff&quot; style=&quot;font-size: 14px;&quot;&gt;R18&lt;/font&gt;&lt;/b&gt;" style="text;html=1;align=center;verticalAlign=middle;whiteSpace=wrap;rounded=0;" parent="IlDslpWlMJQfnDaj4fPr-151" vertex="1">
          <mxGeometry y="17.5" width="60" height="30" as="geometry" />
        </mxCell>
        <mxCell id="IlDslpWlMJQfnDaj4fPr-157" value="" style="group" parent="1" vertex="1" connectable="0">
          <mxGeometry x="936" y="605" width="60" height="47.5" as="geometry" />
        </mxCell>
        <mxCell id="IlDslpWlMJQfnDaj4fPr-158" value="" style="shape=mxgraph.cisco.routers.router;sketch=0;html=1;pointerEvents=1;dashed=0;fillColor=#036897;strokeColor=#ffffff;strokeWidth=2;verticalLabelPosition=bottom;verticalAlign=top;align=center;outlineConnect=0;" parent="IlDslpWlMJQfnDaj4fPr-157" vertex="1">
          <mxGeometry width="60" height="43" as="geometry" />
        </mxCell>
        <mxCell id="IlDslpWlMJQfnDaj4fPr-159" value="&lt;b&gt;&lt;font color=&quot;#ffffff&quot; style=&quot;font-size: 14px;&quot;&gt;R32&lt;/font&gt;&lt;/b&gt;" style="text;html=1;align=center;verticalAlign=middle;whiteSpace=wrap;rounded=0;" parent="IlDslpWlMJQfnDaj4fPr-157" vertex="1">
          <mxGeometry y="17.5" width="60" height="30" as="geometry" />
        </mxCell>
        <mxCell id="IlDslpWlMJQfnDaj4fPr-160" value="" style="endArrow=none;html=1;rounded=0;strokeWidth=2;" parent="1" source="IlDslpWlMJQfnDaj4fPr-137" target="IlDslpWlMJQfnDaj4fPr-152" edge="1">
          <mxGeometry width="50" height="50" relative="1" as="geometry">
            <mxPoint x="820" y="512" as="sourcePoint" />
            <mxPoint x="820" y="445" as="targetPoint" />
          </mxGeometry>
        </mxCell>
        <mxCell id="IlDslpWlMJQfnDaj4fPr-161" value="" style="endArrow=none;html=1;rounded=0;strokeWidth=2;" parent="1" source="IlDslpWlMJQfnDaj4fPr-158" target="IlDslpWlMJQfnDaj4fPr-137" edge="1">
          <mxGeometry width="50" height="50" relative="1" as="geometry">
            <mxPoint x="939.8600000000001" y="512" as="sourcePoint" />
            <mxPoint x="939.8600000000001" y="445" as="targetPoint" />
          </mxGeometry>
        </mxCell>
        <mxCell id="IlDslpWlMJQfnDaj4fPr-164" value="" style="endArrow=none;html=1;rounded=0;strokeWidth=2;" parent="1" source="IlDslpWlMJQfnDaj4fPr-122" target="IlDslpWlMJQfnDaj4fPr-152" edge="1">
          <mxGeometry width="50" height="50" relative="1" as="geometry">
            <mxPoint x="700" y="512" as="sourcePoint" />
            <mxPoint x="700" y="445" as="targetPoint" />
          </mxGeometry>
        </mxCell>
        <mxCell id="IlDslpWlMJQfnDaj4fPr-170" value="" style="shape=link;html=1;rounded=0;strokeWidth=2;width=12.38095238095238;" parent="1" source="IlDslpWlMJQfnDaj4fPr-119" target="IlDslpWlMJQfnDaj4fPr-134" edge="1">
          <mxGeometry width="100" relative="1" as="geometry">
            <mxPoint x="671" y="597" as="sourcePoint" />
            <mxPoint x="786.9999999999995" y="597" as="targetPoint" />
          </mxGeometry>
        </mxCell>
        <mxCell id="IlDslpWlMJQfnDaj4fPr-173" value="" style="group" parent="1" vertex="1" connectable="0">
          <mxGeometry x="132.5" y="37.5" width="60" height="47.5" as="geometry" />
        </mxCell>
        <mxCell id="IlDslpWlMJQfnDaj4fPr-174" value="" style="shape=mxgraph.cisco.routers.router;sketch=0;html=1;pointerEvents=1;dashed=0;fillColor=#036897;strokeColor=#ffffff;strokeWidth=2;verticalLabelPosition=bottom;verticalAlign=top;align=center;outlineConnect=0;" parent="IlDslpWlMJQfnDaj4fPr-173" vertex="1">
          <mxGeometry width="60" height="43" as="geometry" />
        </mxCell>
        <mxCell id="IlDslpWlMJQfnDaj4fPr-175" value="&lt;b&gt;&lt;font color=&quot;#ffffff&quot; style=&quot;font-size: 14px;&quot;&gt;R22&lt;/font&gt;&lt;/b&gt;" style="text;html=1;align=center;verticalAlign=middle;whiteSpace=wrap;rounded=0;" parent="IlDslpWlMJQfnDaj4fPr-173" vertex="1">
          <mxGeometry y="17.5" width="60" height="30" as="geometry" />
        </mxCell>
        <mxCell id="IlDslpWlMJQfnDaj4fPr-176" value="" style="group" parent="1" vertex="1" connectable="0">
          <mxGeometry x="312.5" y="135" width="60" height="47.5" as="geometry" />
        </mxCell>
        <mxCell id="IlDslpWlMJQfnDaj4fPr-177" value="" style="shape=mxgraph.cisco.routers.router;sketch=0;html=1;pointerEvents=1;dashed=0;fillColor=#036897;strokeColor=#ffffff;strokeWidth=2;verticalLabelPosition=bottom;verticalAlign=top;align=center;outlineConnect=0;" parent="IlDslpWlMJQfnDaj4fPr-176" vertex="1">
          <mxGeometry width="60" height="43" as="geometry" />
        </mxCell>
        <mxCell id="IlDslpWlMJQfnDaj4fPr-178" value="&lt;b&gt;&lt;font color=&quot;#ffffff&quot; style=&quot;font-size: 14px;&quot;&gt;R21&lt;/font&gt;&lt;/b&gt;" style="text;html=1;align=center;verticalAlign=middle;whiteSpace=wrap;rounded=0;" parent="IlDslpWlMJQfnDaj4fPr-176" vertex="1">
          <mxGeometry y="17.5" width="60" height="30" as="geometry" />
        </mxCell>
        <mxCell id="IlDslpWlMJQfnDaj4fPr-179" value="" style="group" parent="1" vertex="1" connectable="0">
          <mxGeometry x="624" y="35" width="60" height="47.5" as="geometry" />
        </mxCell>
        <mxCell id="IlDslpWlMJQfnDaj4fPr-180" value="" style="shape=mxgraph.cisco.routers.router;sketch=0;html=1;pointerEvents=1;dashed=0;fillColor=#036897;strokeColor=#ffffff;strokeWidth=2;verticalLabelPosition=bottom;verticalAlign=top;align=center;outlineConnect=0;" parent="IlDslpWlMJQfnDaj4fPr-179" vertex="1">
          <mxGeometry width="60" height="43" as="geometry" />
        </mxCell>
        <mxCell id="IlDslpWlMJQfnDaj4fPr-181" value="&lt;b&gt;&lt;font color=&quot;#ffffff&quot; style=&quot;font-size: 14px;&quot;&gt;R23&lt;/font&gt;&lt;/b&gt;" style="text;html=1;align=center;verticalAlign=middle;whiteSpace=wrap;rounded=0;" parent="IlDslpWlMJQfnDaj4fPr-179" vertex="1">
          <mxGeometry y="17.5" width="60" height="30" as="geometry" />
        </mxCell>
        <mxCell id="IlDslpWlMJQfnDaj4fPr-182" value="" style="group" parent="1" vertex="1" connectable="0">
          <mxGeometry x="804" y="135" width="60" height="47.5" as="geometry" />
        </mxCell>
        <mxCell id="IlDslpWlMJQfnDaj4fPr-183" value="" style="shape=mxgraph.cisco.routers.router;sketch=0;html=1;pointerEvents=1;dashed=0;fillColor=#036897;strokeColor=#ffffff;strokeWidth=2;verticalLabelPosition=bottom;verticalAlign=top;align=center;outlineConnect=0;" parent="IlDslpWlMJQfnDaj4fPr-182" vertex="1">
          <mxGeometry width="60" height="43" as="geometry" />
        </mxCell>
        <mxCell id="IlDslpWlMJQfnDaj4fPr-184" value="&lt;b&gt;&lt;font color=&quot;#ffffff&quot; style=&quot;font-size: 14px;&quot;&gt;R26&lt;/font&gt;&lt;/b&gt;" style="text;html=1;align=center;verticalAlign=middle;whiteSpace=wrap;rounded=0;" parent="IlDslpWlMJQfnDaj4fPr-182" vertex="1">
          <mxGeometry y="17.5" width="60" height="30" as="geometry" />
        </mxCell>
        <mxCell id="IlDslpWlMJQfnDaj4fPr-185" value="" style="group" parent="1" vertex="1" connectable="0">
          <mxGeometry x="624" y="135" width="60" height="47.5" as="geometry" />
        </mxCell>
        <mxCell id="IlDslpWlMJQfnDaj4fPr-186" value="" style="shape=mxgraph.cisco.routers.router;sketch=0;html=1;pointerEvents=1;dashed=0;fillColor=#036897;strokeColor=#ffffff;strokeWidth=2;verticalLabelPosition=bottom;verticalAlign=top;align=center;outlineConnect=0;" parent="IlDslpWlMJQfnDaj4fPr-185" vertex="1">
          <mxGeometry width="60" height="43" as="geometry" />
        </mxCell>
        <mxCell id="IlDslpWlMJQfnDaj4fPr-187" value="&lt;b&gt;&lt;font color=&quot;#ffffff&quot; style=&quot;font-size: 14px;&quot;&gt;R24&lt;/font&gt;&lt;/b&gt;" style="text;html=1;align=center;verticalAlign=middle;whiteSpace=wrap;rounded=0;" parent="IlDslpWlMJQfnDaj4fPr-185" vertex="1">
          <mxGeometry y="17.5" width="60" height="30" as="geometry" />
        </mxCell>
        <mxCell id="IlDslpWlMJQfnDaj4fPr-188" value="" style="group" parent="1" vertex="1" connectable="0">
          <mxGeometry x="804" y="35" width="60" height="47.5" as="geometry" />
        </mxCell>
        <mxCell id="IlDslpWlMJQfnDaj4fPr-189" value="" style="shape=mxgraph.cisco.routers.router;sketch=0;html=1;pointerEvents=1;dashed=0;fillColor=#036897;strokeColor=#ffffff;strokeWidth=2;verticalLabelPosition=bottom;verticalAlign=top;align=center;outlineConnect=0;" parent="IlDslpWlMJQfnDaj4fPr-188" vertex="1">
          <mxGeometry width="60" height="43" as="geometry" />
        </mxCell>
        <mxCell id="IlDslpWlMJQfnDaj4fPr-190" value="&lt;b&gt;&lt;font color=&quot;#ffffff&quot; style=&quot;font-size: 14px;&quot;&gt;R25&lt;/font&gt;&lt;/b&gt;" style="text;html=1;align=center;verticalAlign=middle;whiteSpace=wrap;rounded=0;" parent="IlDslpWlMJQfnDaj4fPr-188" vertex="1">
          <mxGeometry y="17.5" width="60" height="30" as="geometry" />
        </mxCell>
        <mxCell id="IlDslpWlMJQfnDaj4fPr-191" value="" style="group" parent="1" vertex="1" connectable="0">
          <mxGeometry x="1050" y="35" width="60" height="47.5" as="geometry" />
        </mxCell>
        <mxCell id="IlDslpWlMJQfnDaj4fPr-192" value="" style="shape=mxgraph.cisco.routers.router;sketch=0;html=1;pointerEvents=1;dashed=0;fillColor=#036897;strokeColor=#ffffff;strokeWidth=2;verticalLabelPosition=bottom;verticalAlign=top;align=center;outlineConnect=0;" parent="IlDslpWlMJQfnDaj4fPr-191" vertex="1">
          <mxGeometry width="60" height="43" as="geometry" />
        </mxCell>
        <mxCell id="IlDslpWlMJQfnDaj4fPr-193" value="&lt;b&gt;&lt;font color=&quot;#ffffff&quot; style=&quot;font-size: 14px;&quot;&gt;R27&lt;/font&gt;&lt;/b&gt;" style="text;html=1;align=center;verticalAlign=middle;whiteSpace=wrap;rounded=0;" parent="IlDslpWlMJQfnDaj4fPr-191" vertex="1">
          <mxGeometry y="17.5" width="60" height="30" as="geometry" />
        </mxCell>
        <mxCell id="IlDslpWlMJQfnDaj4fPr-194" value="" style="group" parent="1" vertex="1" connectable="0">
          <mxGeometry x="1051" y="135" width="60" height="47.5" as="geometry" />
        </mxCell>
        <mxCell id="IlDslpWlMJQfnDaj4fPr-195" value="" style="shape=mxgraph.cisco.routers.router;sketch=0;html=1;pointerEvents=1;dashed=0;fillColor=#036897;strokeColor=#ffffff;strokeWidth=2;verticalLabelPosition=bottom;verticalAlign=top;align=center;outlineConnect=0;" parent="IlDslpWlMJQfnDaj4fPr-194" vertex="1">
          <mxGeometry width="60" height="43" as="geometry" />
        </mxCell>
        <mxCell id="IlDslpWlMJQfnDaj4fPr-196" value="&lt;b&gt;&lt;font color=&quot;#ffffff&quot; style=&quot;font-size: 14px;&quot;&gt;R28&lt;/font&gt;&lt;/b&gt;" style="text;html=1;align=center;verticalAlign=middle;whiteSpace=wrap;rounded=0;" parent="IlDslpWlMJQfnDaj4fPr-194" vertex="1">
          <mxGeometry y="17.5" width="60" height="30" as="geometry" />
        </mxCell>
        <mxCell id="IlDslpWlMJQfnDaj4fPr-197" value="" style="group" parent="1" vertex="1" connectable="0">
          <mxGeometry x="1140" y="235" width="70" height="44" as="geometry" />
        </mxCell>
        <mxCell id="IlDslpWlMJQfnDaj4fPr-198" value="" style="shape=mxgraph.cisco.switches.workgroup_switch;sketch=0;html=1;pointerEvents=1;dashed=0;fillColor=#036897;strokeColor=#ffffff;strokeWidth=2;verticalLabelPosition=bottom;verticalAlign=top;align=center;outlineConnect=0;" parent="IlDslpWlMJQfnDaj4fPr-197" vertex="1">
          <mxGeometry width="70" height="40" as="geometry" />
        </mxCell>
        <mxCell id="IlDslpWlMJQfnDaj4fPr-199" value="&lt;b&gt;&lt;font color=&quot;#ffffff&quot; style=&quot;font-size: 14px;&quot;&gt;SW29&lt;/font&gt;&lt;/b&gt;" style="text;html=1;align=center;verticalAlign=middle;whiteSpace=wrap;rounded=0;" parent="IlDslpWlMJQfnDaj4fPr-197" vertex="1">
          <mxGeometry y="14" width="60" height="30" as="geometry" />
        </mxCell>
        <mxCell id="IlDslpWlMJQfnDaj4fPr-200" value="" style="group" parent="1" vertex="1" connectable="0">
          <mxGeometry x="1090" y="355" width="90" height="60" as="geometry" />
        </mxCell>
        <mxCell id="IlDslpWlMJQfnDaj4fPr-201" value="" style="shape=mxgraph.cisco.computers_and_peripherals.workstation;sketch=0;html=1;pointerEvents=1;dashed=0;fillColor=#036897;strokeColor=#ffffff;strokeWidth=2;verticalLabelPosition=bottom;verticalAlign=top;align=center;outlineConnect=0;" parent="IlDslpWlMJQfnDaj4fPr-200" vertex="1">
          <mxGeometry width="90" height="60" as="geometry" />
        </mxCell>
        <mxCell id="IlDslpWlMJQfnDaj4fPr-202" value="&lt;b&gt;&lt;font color=&quot;#ffffff&quot; style=&quot;font-size: 14px;&quot;&gt;VPC30&lt;/font&gt;&lt;/b&gt;" style="text;html=1;align=center;verticalAlign=middle;whiteSpace=wrap;rounded=0;" parent="IlDslpWlMJQfnDaj4fPr-200" vertex="1">
          <mxGeometry x="6" y="4" width="60" height="30" as="geometry" />
        </mxCell>
        <mxCell id="IlDslpWlMJQfnDaj4fPr-203" value="" style="group" parent="1" vertex="1" connectable="0">
          <mxGeometry x="1230" y="355" width="90" height="60" as="geometry" />
        </mxCell>
        <mxCell id="IlDslpWlMJQfnDaj4fPr-204" value="" style="shape=mxgraph.cisco.computers_and_peripherals.workstation;sketch=0;html=1;pointerEvents=1;dashed=0;fillColor=#036897;strokeColor=#ffffff;strokeWidth=2;verticalLabelPosition=bottom;verticalAlign=top;align=center;outlineConnect=0;" parent="IlDslpWlMJQfnDaj4fPr-203" vertex="1">
          <mxGeometry width="90" height="60" as="geometry" />
        </mxCell>
        <mxCell id="IlDslpWlMJQfnDaj4fPr-205" value="&lt;b&gt;&lt;font color=&quot;#ffffff&quot; style=&quot;font-size: 14px;&quot;&gt;VPC31&lt;/font&gt;&lt;/b&gt;" style="text;html=1;align=center;verticalAlign=middle;whiteSpace=wrap;rounded=0;" parent="IlDslpWlMJQfnDaj4fPr-203" vertex="1">
          <mxGeometry x="6" y="4" width="60" height="30" as="geometry" />
        </mxCell>
        <mxCell id="IlDslpWlMJQfnDaj4fPr-206" value="" style="endArrow=none;html=1;rounded=0;strokeWidth=2;" parent="1" source="IlDslpWlMJQfnDaj4fPr-195" target="IlDslpWlMJQfnDaj4fPr-189" edge="1">
          <mxGeometry width="50" height="50" relative="1" as="geometry">
            <mxPoint x="1148" y="362" as="sourcePoint" />
            <mxPoint x="1090" y="275" as="targetPoint" />
          </mxGeometry>
        </mxCell>
        <mxCell id="IlDslpWlMJQfnDaj4fPr-207" value="" style="endArrow=none;html=1;rounded=0;strokeWidth=2;" parent="1" source="IlDslpWlMJQfnDaj4fPr-195" target="IlDslpWlMJQfnDaj4fPr-183" edge="1">
          <mxGeometry width="50" height="50" relative="1" as="geometry">
            <mxPoint x="1158" y="372" as="sourcePoint" />
            <mxPoint x="1100" y="285" as="targetPoint" />
          </mxGeometry>
        </mxCell>
        <mxCell id="IlDslpWlMJQfnDaj4fPr-208" value="" style="endArrow=none;html=1;rounded=0;strokeWidth=2;" parent="1" source="IlDslpWlMJQfnDaj4fPr-198" target="IlDslpWlMJQfnDaj4fPr-195" edge="1">
          <mxGeometry width="50" height="50" relative="1" as="geometry">
            <mxPoint x="1088" y="352" as="sourcePoint" />
            <mxPoint x="1030" y="265" as="targetPoint" />
          </mxGeometry>
        </mxCell>
        <mxCell id="IlDslpWlMJQfnDaj4fPr-209" value="" style="endArrow=none;html=1;rounded=0;strokeWidth=2;" parent="1" source="IlDslpWlMJQfnDaj4fPr-201" target="IlDslpWlMJQfnDaj4fPr-198" edge="1">
          <mxGeometry width="50" height="50" relative="1" as="geometry">
            <mxPoint x="1098" y="362" as="sourcePoint" />
            <mxPoint x="1040" y="275" as="targetPoint" />
          </mxGeometry>
        </mxCell>
        <mxCell id="IlDslpWlMJQfnDaj4fPr-210" value="" style="endArrow=none;html=1;rounded=0;strokeWidth=2;" parent="1" source="IlDslpWlMJQfnDaj4fPr-204" target="IlDslpWlMJQfnDaj4fPr-198" edge="1">
          <mxGeometry width="50" height="50" relative="1" as="geometry">
            <mxPoint x="1108" y="372" as="sourcePoint" />
            <mxPoint x="1050" y="285" as="targetPoint" />
          </mxGeometry>
        </mxCell>
        <mxCell id="IlDslpWlMJQfnDaj4fPr-211" value="" style="endArrow=none;html=1;rounded=0;strokeWidth=2;" parent="1" source="IlDslpWlMJQfnDaj4fPr-41" target="IlDslpWlMJQfnDaj4fPr-174" edge="1">
          <mxGeometry width="50" height="50" relative="1" as="geometry">
            <mxPoint x="590" y="269.5" as="sourcePoint" />
            <mxPoint x="532" y="182.5" as="targetPoint" />
          </mxGeometry>
        </mxCell>
        <mxCell id="IlDslpWlMJQfnDaj4fPr-212" value="" style="endArrow=none;html=1;rounded=0;strokeWidth=2;" parent="1" source="IlDslpWlMJQfnDaj4fPr-192" target="IlDslpWlMJQfnDaj4fPr-189" edge="1">
          <mxGeometry width="50" height="50" relative="1" as="geometry">
            <mxPoint x="1078" y="202.25" as="sourcePoint" />
            <mxPoint x="1020" y="115.25" as="targetPoint" />
          </mxGeometry>
        </mxCell>
        <mxCell id="IlDslpWlMJQfnDaj4fPr-213" value="" style="endArrow=none;html=1;rounded=0;strokeWidth=2;" parent="1" source="IlDslpWlMJQfnDaj4fPr-186" target="IlDslpWlMJQfnDaj4fPr-180" edge="1">
          <mxGeometry width="50" height="50" relative="1" as="geometry">
            <mxPoint x="520" y="179.5" as="sourcePoint" />
            <mxPoint x="462" y="92.5" as="targetPoint" />
          </mxGeometry>
        </mxCell>
        <mxCell id="IlDslpWlMJQfnDaj4fPr-214" value="" style="endArrow=none;html=1;rounded=0;strokeWidth=2;" parent="1" source="IlDslpWlMJQfnDaj4fPr-189" target="IlDslpWlMJQfnDaj4fPr-180" edge="1">
          <mxGeometry width="50" height="50" relative="1" as="geometry">
            <mxPoint x="530" y="189.5" as="sourcePoint" />
            <mxPoint x="472" y="102.5" as="targetPoint" />
          </mxGeometry>
        </mxCell>
        <mxCell id="IlDslpWlMJQfnDaj4fPr-215" value="" style="endArrow=none;html=1;rounded=0;strokeWidth=2;" parent="1" source="IlDslpWlMJQfnDaj4fPr-183" target="IlDslpWlMJQfnDaj4fPr-186" edge="1">
          <mxGeometry width="50" height="50" relative="1" as="geometry">
            <mxPoint x="540" y="200" as="sourcePoint" />
            <mxPoint x="482" y="112.5" as="targetPoint" />
          </mxGeometry>
        </mxCell>
        <mxCell id="IlDslpWlMJQfnDaj4fPr-216" value="" style="endArrow=none;html=1;rounded=0;strokeWidth=2;" parent="1" source="IlDslpWlMJQfnDaj4fPr-183" target="IlDslpWlMJQfnDaj4fPr-189" edge="1">
          <mxGeometry width="50" height="50" relative="1" as="geometry">
            <mxPoint x="550" y="209.5" as="sourcePoint" />
            <mxPoint x="492" y="122.5" as="targetPoint" />
          </mxGeometry>
        </mxCell>
        <mxCell id="IlDslpWlMJQfnDaj4fPr-217" value="" style="endArrow=none;html=1;rounded=0;strokeWidth=2;" parent="1" source="IlDslpWlMJQfnDaj4fPr-177" target="IlDslpWlMJQfnDaj4fPr-174" edge="1">
          <mxGeometry width="50" height="50" relative="1" as="geometry">
            <mxPoint x="600" y="159.5" as="sourcePoint" />
            <mxPoint x="542" y="72.5" as="targetPoint" />
          </mxGeometry>
        </mxCell>
        <mxCell id="IlDslpWlMJQfnDaj4fPr-218" value="" style="endArrow=none;html=1;rounded=0;strokeWidth=2;" parent="1" source="IlDslpWlMJQfnDaj4fPr-44" target="IlDslpWlMJQfnDaj4fPr-177" edge="1">
          <mxGeometry width="50" height="50" relative="1" as="geometry">
            <mxPoint x="610" y="289.5" as="sourcePoint" />
            <mxPoint x="552" y="202.5" as="targetPoint" />
          </mxGeometry>
        </mxCell>
        <mxCell id="IlDslpWlMJQfnDaj4fPr-219" value="" style="endArrow=none;html=1;rounded=0;strokeWidth=2;" parent="1" source="IlDslpWlMJQfnDaj4fPr-186" target="IlDslpWlMJQfnDaj4fPr-177" edge="1">
          <mxGeometry width="50" height="50" relative="1" as="geometry">
            <mxPoint x="620" y="299.5" as="sourcePoint" />
            <mxPoint x="562" y="212.5" as="targetPoint" />
          </mxGeometry>
        </mxCell>
        <mxCell id="IlDslpWlMJQfnDaj4fPr-220" value="" style="endArrow=none;html=1;rounded=0;strokeWidth=2;" parent="1" source="IlDslpWlMJQfnDaj4fPr-180" target="IlDslpWlMJQfnDaj4fPr-174" edge="1">
          <mxGeometry width="50" height="50" relative="1" as="geometry">
            <mxPoint x="630" y="309.5" as="sourcePoint" />
            <mxPoint x="572" y="222.5" as="targetPoint" />
          </mxGeometry>
        </mxCell>
        <mxCell id="J4p2vavXGs8pfv7Cpsuk-83" value="" style="endArrow=none;html=1;rounded=0;strokeWidth=2;" parent="1" source="IlDslpWlMJQfnDaj4fPr-152" target="IlDslpWlMJQfnDaj4fPr-186" edge="1">
          <mxGeometry width="50" height="50" relative="1" as="geometry">
            <mxPoint x="807" y="359.5" as="sourcePoint" />
            <mxPoint x="807" y="302.5" as="targetPoint" />
          </mxGeometry>
        </mxCell>
        <mxCell id="J4p2vavXGs8pfv7Cpsuk-84" value="" style="endArrow=none;html=1;rounded=0;strokeWidth=2;" parent="1" source="IlDslpWlMJQfnDaj4fPr-152" target="IlDslpWlMJQfnDaj4fPr-183" edge="1">
          <mxGeometry width="50" height="50" relative="1" as="geometry">
            <mxPoint x="850" y="359.5" as="sourcePoint" />
            <mxPoint x="850" y="302.5" as="targetPoint" />
          </mxGeometry>
        </mxCell>
        <mxCell id="IlDslpWlMJQfnDaj4fPr-167" value="" style="endArrow=none;html=1;rounded=0;strokeWidth=2;" parent="1" source="IlDslpWlMJQfnDaj4fPr-122" target="IlDslpWlMJQfnDaj4fPr-137" edge="1">
          <mxGeometry width="50" height="50" relative="1" as="geometry">
            <mxPoint x="820" y="450" as="sourcePoint" />
            <mxPoint x="922.5" y="516.4894594594593" as="targetPoint" />
          </mxGeometry>
        </mxCell>
        <mxCell id="J4p2vavXGs8pfv7Cpsuk-19" value="Interfaces" parent="0" />
        <mxCell id="J4p2vavXGs8pfv7Cpsuk-20" value="e0/0" style="rounded=1;whiteSpace=wrap;html=1;arcSize=40;imageHeight=24;fontSize=10;imageWidth=24;" parent="J4p2vavXGs8pfv7Cpsuk-19" vertex="1">
          <mxGeometry x="744" y="450" width="24" height="14" as="geometry" />
        </mxCell>
        <mxCell id="J4p2vavXGs8pfv7Cpsuk-21" value="e0/0" style="rounded=1;whiteSpace=wrap;html=1;arcSize=40;imageHeight=24;fontSize=10;imageWidth=24;" parent="J4p2vavXGs8pfv7Cpsuk-19" vertex="1">
          <mxGeometry x="152" y="737" width="24" height="14" as="geometry" />
        </mxCell>
        <mxCell id="J4p2vavXGs8pfv7Cpsuk-22" value="e0/0" style="rounded=1;whiteSpace=wrap;html=1;arcSize=40;imageHeight=24;fontSize=10;imageWidth=24;" parent="J4p2vavXGs8pfv7Cpsuk-19" vertex="1">
          <mxGeometry x="331" y="331" width="24" height="14" as="geometry" />
        </mxCell>
        <mxCell id="J4p2vavXGs8pfv7Cpsuk-23" value="e0/0" style="rounded=1;whiteSpace=wrap;html=1;arcSize=40;imageHeight=24;fontSize=10;imageWidth=24;" parent="J4p2vavXGs8pfv7Cpsuk-19" vertex="1">
          <mxGeometry x="62" y="418" width="24" height="14" as="geometry" />
        </mxCell>
        <mxCell id="J4p2vavXGs8pfv7Cpsuk-37" value="e0/0" style="rounded=1;whiteSpace=wrap;html=1;arcSize=40;imageHeight=24;fontSize=10;imageWidth=24;" parent="J4p2vavXGs8pfv7Cpsuk-19" vertex="1">
          <mxGeometry x="911" y="597" width="24" height="14" as="geometry" />
        </mxCell>
        <mxCell id="J4p2vavXGs8pfv7Cpsuk-38" value="e0/0" style="rounded=1;whiteSpace=wrap;html=1;arcSize=40;imageHeight=24;fontSize=10;imageWidth=24;" parent="J4p2vavXGs8pfv7Cpsuk-19" vertex="1">
          <mxGeometry x="333" y="737" width="24" height="14" as="geometry" />
        </mxCell>
        <mxCell id="J4p2vavXGs8pfv7Cpsuk-39" value="e0/0" style="rounded=1;whiteSpace=wrap;html=1;arcSize=40;imageHeight=24;fontSize=10;imageWidth=24;" parent="J4p2vavXGs8pfv7Cpsuk-19" vertex="1">
          <mxGeometry x="330" y="481" width="24" height="14" as="geometry" />
        </mxCell>
        <mxCell id="J4p2vavXGs8pfv7Cpsuk-40" value="e0/0" style="rounded=1;whiteSpace=wrap;html=1;arcSize=40;imageHeight=24;fontSize=10;imageWidth=24;" parent="J4p2vavXGs8pfv7Cpsuk-19" vertex="1">
          <mxGeometry x="424" y="419" width="24" height="14" as="geometry" />
        </mxCell>
        <mxCell id="J4p2vavXGs8pfv7Cpsuk-41" value="e0/0" style="rounded=1;whiteSpace=wrap;html=1;arcSize=40;imageHeight=24;fontSize=10;imageWidth=24;" parent="J4p2vavXGs8pfv7Cpsuk-19" vertex="1">
          <mxGeometry x="759" y="681" width="24" height="14" as="geometry" />
        </mxCell>
        <mxCell id="J4p2vavXGs8pfv7Cpsuk-42" value="e0/0" style="rounded=1;whiteSpace=wrap;html=1;arcSize=40;imageHeight=24;fontSize=10;imageWidth=24;" parent="J4p2vavXGs8pfv7Cpsuk-19" vertex="1">
          <mxGeometry x="151" y="332" width="24" height="14" as="geometry" />
        </mxCell>
        <mxCell id="J4p2vavXGs8pfv7Cpsuk-43" value="e0/0" style="rounded=1;whiteSpace=wrap;html=1;arcSize=40;imageHeight=24;fontSize=10;imageWidth=24;" parent="J4p2vavXGs8pfv7Cpsuk-19" vertex="1">
          <mxGeometry x="150" y="481" width="24" height="14" as="geometry" />
        </mxCell>
        <mxCell id="J4p2vavXGs8pfv7Cpsuk-44" value="e0/0" style="rounded=1;whiteSpace=wrap;html=1;arcSize=40;imageHeight=24;fontSize=10;imageWidth=24;" parent="J4p2vavXGs8pfv7Cpsuk-19" vertex="1">
          <mxGeometry x="811" y="581" width="24" height="14" as="geometry" />
        </mxCell>
        <mxCell id="J4p2vavXGs8pfv7Cpsuk-45" value="e0/0" style="rounded=1;whiteSpace=wrap;html=1;arcSize=40;imageHeight=24;fontSize=10;imageWidth=24;" parent="J4p2vavXGs8pfv7Cpsuk-19" vertex="1">
          <mxGeometry x="679" y="681" width="24" height="14" as="geometry" />
        </mxCell>
        <mxCell id="J4p2vavXGs8pfv7Cpsuk-46" value="e0/0" style="rounded=1;whiteSpace=wrap;html=1;arcSize=40;imageHeight=24;fontSize=10;imageWidth=24;" parent="J4p2vavXGs8pfv7Cpsuk-19" vertex="1">
          <mxGeometry x="331" y="642" width="24" height="14" as="geometry" />
        </mxCell>
        <mxCell id="J4p2vavXGs8pfv7Cpsuk-47" value="e0/0" style="rounded=1;whiteSpace=wrap;html=1;arcSize=40;imageHeight=24;fontSize=10;imageWidth=24;" parent="J4p2vavXGs8pfv7Cpsuk-19" vertex="1">
          <mxGeometry x="152" y="642" width="24" height="14" as="geometry" />
        </mxCell>
        <mxCell id="J4p2vavXGs8pfv7Cpsuk-48" value="e0/0" style="rounded=1;whiteSpace=wrap;html=1;arcSize=40;imageHeight=24;fontSize=10;imageWidth=24;" parent="J4p2vavXGs8pfv7Cpsuk-19" vertex="1">
          <mxGeometry x="630" y="581" width="24" height="14" as="geometry" />
        </mxCell>
        <mxCell id="J4p2vavXGs8pfv7Cpsuk-50" value="e0/2" style="rounded=1;whiteSpace=wrap;html=1;arcSize=40;imageHeight=24;fontSize=10;imageWidth=24;" parent="J4p2vavXGs8pfv7Cpsuk-19" vertex="1">
          <mxGeometry x="334" y="798" width="24" height="14" as="geometry" />
        </mxCell>
        <mxCell id="J4p2vavXGs8pfv7Cpsuk-51" value="e0/2" style="rounded=1;whiteSpace=wrap;html=1;arcSize=40;imageHeight=24;fontSize=10;imageWidth=24;" parent="J4p2vavXGs8pfv7Cpsuk-19" vertex="1">
          <mxGeometry x="153" y="798" width="24" height="14" as="geometry" />
        </mxCell>
        <mxCell id="J4p2vavXGs8pfv7Cpsuk-52" value="eth0" style="rounded=1;whiteSpace=wrap;html=1;arcSize=40;imageHeight=24;fontSize=10;imageWidth=24;" parent="J4p2vavXGs8pfv7Cpsuk-19" vertex="1">
          <mxGeometry x="333" y="847" width="24" height="14" as="geometry" />
        </mxCell>
        <mxCell id="J4p2vavXGs8pfv7Cpsuk-54" value="eth0" style="rounded=1;whiteSpace=wrap;html=1;arcSize=40;imageHeight=24;fontSize=10;imageWidth=24;" parent="J4p2vavXGs8pfv7Cpsuk-19" vertex="1">
          <mxGeometry x="153" y="847" width="24" height="14" as="geometry" />
        </mxCell>
        <mxCell id="J4p2vavXGs8pfv7Cpsuk-55" value="e0/1" style="rounded=1;whiteSpace=wrap;html=1;arcSize=40;imageHeight=24;fontSize=10;imageWidth=24;" parent="J4p2vavXGs8pfv7Cpsuk-19" vertex="1">
          <mxGeometry x="301" y="737" width="24" height="14" as="geometry" />
        </mxCell>
        <mxCell id="J4p2vavXGs8pfv7Cpsuk-56" value="e0/1" style="rounded=1;whiteSpace=wrap;html=1;arcSize=40;imageHeight=24;fontSize=10;imageWidth=24;" parent="J4p2vavXGs8pfv7Cpsuk-19" vertex="1">
          <mxGeometry x="290" y="641" width="24" height="14" as="geometry" />
        </mxCell>
        <mxCell id="J4p2vavXGs8pfv7Cpsuk-57" value="e0/1" style="rounded=1;whiteSpace=wrap;html=1;arcSize=40;imageHeight=24;fontSize=10;imageWidth=24;" parent="J4p2vavXGs8pfv7Cpsuk-19" vertex="1">
          <mxGeometry x="192" y="640" width="24" height="14" as="geometry" />
        </mxCell>
        <mxCell id="J4p2vavXGs8pfv7Cpsuk-58" value="e0/1" style="rounded=1;whiteSpace=wrap;html=1;arcSize=40;imageHeight=24;fontSize=10;imageWidth=24;" parent="J4p2vavXGs8pfv7Cpsuk-19" vertex="1">
          <mxGeometry x="184" y="737" width="24" height="14" as="geometry" />
        </mxCell>
        <mxCell id="J4p2vavXGs8pfv7Cpsuk-59" value="e0/0" style="rounded=1;whiteSpace=wrap;html=1;arcSize=40;imageHeight=24;fontSize=10;imageWidth=24;" parent="J4p2vavXGs8pfv7Cpsuk-19" vertex="1">
          <mxGeometry x="150" y="84" width="24" height="14" as="geometry" />
        </mxCell>
        <mxCell id="J4p2vavXGs8pfv7Cpsuk-62" value="e0/0" style="rounded=1;whiteSpace=wrap;html=1;arcSize=40;imageHeight=24;fontSize=10;imageWidth=24;" parent="J4p2vavXGs8pfv7Cpsuk-19" vertex="1">
          <mxGeometry x="331" y="182" width="24" height="14" as="geometry" />
        </mxCell>
        <mxCell id="J4p2vavXGs8pfv7Cpsuk-63" value="e0/1" style="rounded=1;whiteSpace=wrap;html=1;arcSize=40;imageHeight=24;fontSize=10;imageWidth=24;" parent="J4p2vavXGs8pfv7Cpsuk-19" vertex="1">
          <mxGeometry x="185" y="479" width="24" height="14" as="geometry" />
        </mxCell>
        <mxCell id="J4p2vavXGs8pfv7Cpsuk-64" value="e0/1" style="rounded=1;whiteSpace=wrap;html=1;arcSize=40;imageHeight=24;fontSize=10;imageWidth=24;" parent="J4p2vavXGs8pfv7Cpsuk-19" vertex="1">
          <mxGeometry x="295" y="479" width="24" height="14" as="geometry" />
        </mxCell>
        <mxCell id="J4p2vavXGs8pfv7Cpsuk-65" value="e1/1" style="rounded=1;whiteSpace=wrap;html=1;arcSize=40;imageHeight=24;fontSize=10;imageWidth=24;" parent="J4p2vavXGs8pfv7Cpsuk-19" vertex="1">
          <mxGeometry x="195" y="562" width="24" height="14" as="geometry" />
        </mxCell>
        <mxCell id="J4p2vavXGs8pfv7Cpsuk-66" value="e1/1" style="rounded=1;whiteSpace=wrap;html=1;arcSize=40;imageHeight=24;fontSize=10;imageWidth=24;" parent="J4p2vavXGs8pfv7Cpsuk-19" vertex="1">
          <mxGeometry x="287" y="562" width="24" height="14" as="geometry" />
        </mxCell>
        <mxCell id="J4p2vavXGs8pfv7Cpsuk-67" value="e1/0" style="rounded=1;whiteSpace=wrap;html=1;arcSize=40;imageHeight=24;fontSize=10;imageWidth=24;" parent="J4p2vavXGs8pfv7Cpsuk-19" vertex="1">
          <mxGeometry x="150" y="558" width="24" height="14" as="geometry" />
        </mxCell>
        <mxCell id="J4p2vavXGs8pfv7Cpsuk-68" value="e1/0" style="rounded=1;whiteSpace=wrap;html=1;arcSize=40;imageHeight=24;fontSize=10;imageWidth=24;" parent="J4p2vavXGs8pfv7Cpsuk-19" vertex="1">
          <mxGeometry x="331" y="558" width="24" height="14" as="geometry" />
        </mxCell>
        <mxCell id="J4p2vavXGs8pfv7Cpsuk-69" value="e0/2" style="rounded=1;whiteSpace=wrap;html=1;arcSize=40;imageHeight=24;fontSize=10;imageWidth=24;" parent="J4p2vavXGs8pfv7Cpsuk-19" vertex="1">
          <mxGeometry x="199" y="593" width="24" height="14" as="geometry" />
        </mxCell>
        <mxCell id="J4p2vavXGs8pfv7Cpsuk-70" value="e0/2" style="rounded=1;whiteSpace=wrap;html=1;arcSize=40;imageHeight=24;fontSize=10;imageWidth=24;" parent="J4p2vavXGs8pfv7Cpsuk-19" vertex="1">
          <mxGeometry x="284" y="593" width="24" height="14" as="geometry" />
        </mxCell>
        <mxCell id="J4p2vavXGs8pfv7Cpsuk-71" value="e0/3" style="rounded=1;whiteSpace=wrap;html=1;arcSize=40;imageHeight=24;fontSize=10;imageWidth=24;" parent="J4p2vavXGs8pfv7Cpsuk-19" vertex="1">
          <mxGeometry x="284" y="607" width="24" height="14" as="geometry" />
        </mxCell>
        <mxCell id="J4p2vavXGs8pfv7Cpsuk-72" value="e0/3" style="rounded=1;whiteSpace=wrap;html=1;arcSize=40;imageHeight=24;fontSize=10;imageWidth=24;" parent="J4p2vavXGs8pfv7Cpsuk-19" vertex="1">
          <mxGeometry x="199" y="607" width="24" height="14" as="geometry" />
        </mxCell>
        <mxCell id="J4p2vavXGs8pfv7Cpsuk-75" value="e0/2" style="rounded=1;whiteSpace=wrap;html=1;arcSize=40;imageHeight=24;fontSize=10;imageWidth=24;" parent="J4p2vavXGs8pfv7Cpsuk-19" vertex="1">
          <mxGeometry x="150" y="418" width="24" height="14" as="geometry" />
        </mxCell>
        <mxCell id="J4p2vavXGs8pfv7Cpsuk-76" value="e0/2" style="rounded=1;whiteSpace=wrap;html=1;arcSize=40;imageHeight=24;fontSize=10;imageWidth=24;" parent="J4p2vavXGs8pfv7Cpsuk-19" vertex="1">
          <mxGeometry x="330" y="419" width="24" height="14" as="geometry" />
        </mxCell>
        <mxCell id="J4p2vavXGs8pfv7Cpsuk-77" value="e0/3" style="rounded=1;whiteSpace=wrap;html=1;arcSize=40;imageHeight=24;fontSize=10;imageWidth=24;" parent="J4p2vavXGs8pfv7Cpsuk-19" vertex="1">
          <mxGeometry x="186" y="420" width="24" height="14" as="geometry" />
        </mxCell>
        <mxCell id="J4p2vavXGs8pfv7Cpsuk-78" value="e0/1" style="rounded=1;whiteSpace=wrap;html=1;arcSize=40;imageHeight=24;fontSize=10;imageWidth=24;" parent="J4p2vavXGs8pfv7Cpsuk-19" vertex="1">
          <mxGeometry x="186" y="330" width="24" height="14" as="geometry" />
        </mxCell>
        <mxCell id="J4p2vavXGs8pfv7Cpsuk-79" value="e0/1" style="rounded=1;whiteSpace=wrap;html=1;arcSize=40;imageHeight=24;fontSize=10;imageWidth=24;" parent="J4p2vavXGs8pfv7Cpsuk-19" vertex="1">
          <mxGeometry x="295" y="330" width="24" height="14" as="geometry" />
        </mxCell>
        <mxCell id="J4p2vavXGs8pfv7Cpsuk-80" value="e0/3" style="rounded=1;whiteSpace=wrap;html=1;arcSize=40;imageHeight=24;fontSize=10;imageWidth=24;" parent="J4p2vavXGs8pfv7Cpsuk-19" vertex="1">
          <mxGeometry x="296" y="419" width="24" height="14" as="geometry" />
        </mxCell>
        <mxCell id="J4p2vavXGs8pfv7Cpsuk-81" value="e0/3" style="rounded=1;whiteSpace=wrap;html=1;arcSize=40;imageHeight=24;fontSize=10;imageWidth=24;" parent="J4p2vavXGs8pfv7Cpsuk-19" vertex="1">
          <mxGeometry x="358" y="330" width="24" height="14" as="geometry" />
        </mxCell>
        <mxCell id="J4p2vavXGs8pfv7Cpsuk-82" value="e0/3" style="rounded=1;whiteSpace=wrap;html=1;arcSize=40;imageHeight=24;fontSize=10;imageWidth=24;" parent="J4p2vavXGs8pfv7Cpsuk-19" vertex="1">
          <mxGeometry x="124" y="331" width="24" height="14" as="geometry" />
        </mxCell>
        <mxCell id="J4p2vavXGs8pfv7Cpsuk-89" value="e0/3" style="rounded=1;whiteSpace=wrap;html=1;arcSize=40;imageHeight=24;fontSize=10;imageWidth=24;" parent="J4p2vavXGs8pfv7Cpsuk-19" vertex="1">
          <mxGeometry x="629" y="657" width="24" height="14" as="geometry" />
        </mxCell>
        <mxCell id="J4p2vavXGs8pfv7Cpsuk-88" value="e0/2" style="rounded=1;whiteSpace=wrap;html=1;arcSize=40;imageHeight=24;fontSize=10;imageWidth=24;" parent="J4p2vavXGs8pfv7Cpsuk-19" vertex="1">
          <mxGeometry x="675" y="549" width="24" height="14" as="geometry" />
        </mxCell>
        <mxCell id="J4p2vavXGs8pfv7Cpsuk-85" value="e0/2" style="rounded=1;whiteSpace=wrap;html=1;arcSize=40;imageHeight=24;fontSize=10;imageWidth=24;" parent="J4p2vavXGs8pfv7Cpsuk-19" vertex="1">
          <mxGeometry x="628.5" y="718" width="24" height="14" as="geometry" />
        </mxCell>
        <mxCell id="J4p2vavXGs8pfv7Cpsuk-86" value="e0/2" style="rounded=1;whiteSpace=wrap;html=1;arcSize=40;imageHeight=24;fontSize=10;imageWidth=24;" parent="J4p2vavXGs8pfv7Cpsuk-19" vertex="1">
          <mxGeometry x="809.5" y="719" width="24" height="14" as="geometry" />
        </mxCell>
        <mxCell id="J4p2vavXGs8pfv7Cpsuk-87" value="e0/2" style="rounded=1;whiteSpace=wrap;html=1;arcSize=40;imageHeight=24;fontSize=10;imageWidth=24;" parent="J4p2vavXGs8pfv7Cpsuk-19" vertex="1">
          <mxGeometry x="766" y="549" width="24" height="14" as="geometry" />
        </mxCell>
        <mxCell id="J4p2vavXGs8pfv7Cpsuk-92" value="e0/3" style="rounded=1;whiteSpace=wrap;html=1;arcSize=40;imageHeight=24;fontSize=10;imageWidth=24;" parent="J4p2vavXGs8pfv7Cpsuk-19" vertex="1">
          <mxGeometry x="853" y="571" width="24" height="14" as="geometry" />
        </mxCell>
        <mxCell id="J4p2vavXGs8pfv7Cpsuk-91" value="e0/3" style="rounded=1;whiteSpace=wrap;html=1;arcSize=40;imageHeight=24;fontSize=10;imageWidth=24;" parent="J4p2vavXGs8pfv7Cpsuk-19" vertex="1">
          <mxGeometry x="809" y="657" width="24" height="14" as="geometry" />
        </mxCell>
        <mxCell id="J4p2vavXGs8pfv7Cpsuk-93" value="e0/2" style="rounded=1;whiteSpace=wrap;html=1;arcSize=40;imageHeight=24;fontSize=10;imageWidth=24;" parent="J4p2vavXGs8pfv7Cpsuk-19" vertex="1">
          <mxGeometry x="1138" y="218" width="24" height="14" as="geometry" />
        </mxCell>
        <mxCell id="J4p2vavXGs8pfv7Cpsuk-95" value="e0/1" style="rounded=1;whiteSpace=wrap;html=1;arcSize=40;imageHeight=24;fontSize=10;imageWidth=24;" parent="J4p2vavXGs8pfv7Cpsuk-19" vertex="1">
          <mxGeometry x="1186" y="279" width="24" height="14" as="geometry" />
        </mxCell>
        <mxCell id="J4p2vavXGs8pfv7Cpsuk-96" value="eth0" style="rounded=1;whiteSpace=wrap;html=1;arcSize=40;imageHeight=24;fontSize=10;imageWidth=24;" parent="J4p2vavXGs8pfv7Cpsuk-19" vertex="1">
          <mxGeometry x="629" y="777" width="24" height="14" as="geometry" />
        </mxCell>
        <mxCell id="J4p2vavXGs8pfv7Cpsuk-97" value="eth0" style="rounded=1;whiteSpace=wrap;html=1;arcSize=40;imageHeight=24;fontSize=10;imageWidth=24;" parent="J4p2vavXGs8pfv7Cpsuk-19" vertex="1">
          <mxGeometry x="809.5" y="778" width="24" height="14" as="geometry" />
        </mxCell>
        <mxCell id="J4p2vavXGs8pfv7Cpsuk-98" value="e0/1" style="rounded=1;whiteSpace=wrap;html=1;arcSize=40;imageHeight=24;fontSize=10;imageWidth=24;" parent="J4p2vavXGs8pfv7Cpsuk-19" vertex="1">
          <mxGeometry x="679" y="695" width="24" height="14" as="geometry" />
        </mxCell>
        <mxCell id="J4p2vavXGs8pfv7Cpsuk-99" value="e0/1" style="rounded=1;whiteSpace=wrap;html=1;arcSize=40;imageHeight=24;fontSize=10;imageWidth=24;" parent="J4p2vavXGs8pfv7Cpsuk-19" vertex="1">
          <mxGeometry x="759" y="695" width="24" height="14" as="geometry" />
        </mxCell>
        <mxCell id="J4p2vavXGs8pfv7Cpsuk-100" value="e0/1" style="rounded=1;whiteSpace=wrap;html=1;arcSize=40;imageHeight=24;fontSize=10;imageWidth=24;" parent="J4p2vavXGs8pfv7Cpsuk-19" vertex="1">
          <mxGeometry x="652" y="517" width="24" height="14" as="geometry" />
        </mxCell>
        <mxCell id="J4p2vavXGs8pfv7Cpsuk-101" value="e0/1" style="rounded=1;whiteSpace=wrap;html=1;arcSize=40;imageHeight=24;fontSize=10;imageWidth=24;" parent="J4p2vavXGs8pfv7Cpsuk-19" vertex="1">
          <mxGeometry x="788.5" y="518" width="24" height="14" as="geometry" />
        </mxCell>
        <mxCell id="J4p2vavXGs8pfv7Cpsuk-102" value="e0/1" style="rounded=1;whiteSpace=wrap;html=1;arcSize=40;imageHeight=24;fontSize=10;imageWidth=24;" parent="J4p2vavXGs8pfv7Cpsuk-19" vertex="1">
          <mxGeometry x="703" y="451" width="24" height="14" as="geometry" />
        </mxCell>
        <mxCell id="J4p2vavXGs8pfv7Cpsuk-103" value="e0/2" style="rounded=1;whiteSpace=wrap;html=1;arcSize=40;imageHeight=24;fontSize=10;imageWidth=24;" parent="J4p2vavXGs8pfv7Cpsuk-19" vertex="1">
          <mxGeometry x="706" y="388" width="24" height="14" as="geometry" />
        </mxCell>
        <mxCell id="J4p2vavXGs8pfv7Cpsuk-106" value="e0/3" style="rounded=1;whiteSpace=wrap;html=1;arcSize=40;imageHeight=24;fontSize=10;imageWidth=24;" parent="J4p2vavXGs8pfv7Cpsuk-19" vertex="1">
          <mxGeometry x="742" y="388" width="24" height="14" as="geometry" />
        </mxCell>
        <mxCell id="J4p2vavXGs8pfv7Cpsuk-90" value="e0/0" style="rounded=1;whiteSpace=wrap;html=1;arcSize=40;imageHeight=24;fontSize=10;imageWidth=24;" parent="J4p2vavXGs8pfv7Cpsuk-19" vertex="1">
          <mxGeometry x="1155" y="279" width="24" height="14" as="geometry" />
        </mxCell>
        <mxCell id="J4p2vavXGs8pfv7Cpsuk-110" value="eth0" style="rounded=1;whiteSpace=wrap;html=1;arcSize=40;imageHeight=24;fontSize=10;imageWidth=24;" parent="J4p2vavXGs8pfv7Cpsuk-19" vertex="1">
          <mxGeometry x="1135" y="337" width="24" height="14" as="geometry" />
        </mxCell>
        <mxCell id="J4p2vavXGs8pfv7Cpsuk-111" value="eth0" style="rounded=1;whiteSpace=wrap;html=1;arcSize=40;imageHeight=24;fontSize=10;imageWidth=24;" parent="J4p2vavXGs8pfv7Cpsuk-19" vertex="1">
          <mxGeometry x="1232" y="338" width="24" height="14" as="geometry" />
        </mxCell>
        <mxCell id="J4p2vavXGs8pfv7Cpsuk-112" value="e0/2" style="rounded=1;whiteSpace=wrap;html=1;arcSize=40;imageHeight=24;fontSize=10;imageWidth=24;" parent="J4p2vavXGs8pfv7Cpsuk-19" vertex="1">
          <mxGeometry x="1098" y="180" width="24" height="14" as="geometry" />
        </mxCell>
        <mxCell id="J4p2vavXGs8pfv7Cpsuk-113" value="e0/0" style="rounded=1;whiteSpace=wrap;html=1;arcSize=40;imageHeight=24;fontSize=10;imageWidth=24;" parent="J4p2vavXGs8pfv7Cpsuk-19" vertex="1">
          <mxGeometry x="1023" y="149" width="24" height="14" as="geometry" />
        </mxCell>
        <mxCell id="J4p2vavXGs8pfv7Cpsuk-114" value="e0/1" style="rounded=1;whiteSpace=wrap;html=1;arcSize=40;imageHeight=24;fontSize=10;imageWidth=24;" parent="J4p2vavXGs8pfv7Cpsuk-19" vertex="1">
          <mxGeometry x="1024" y="132" width="24" height="14" as="geometry" />
        </mxCell>
        <mxCell id="J4p2vavXGs8pfv7Cpsuk-116" value="e0/1" style="rounded=1;whiteSpace=wrap;html=1;arcSize=40;imageHeight=24;fontSize=10;imageWidth=24;" parent="J4p2vavXGs8pfv7Cpsuk-19" vertex="1">
          <mxGeometry x="193" y="76" width="24" height="14" as="geometry" />
        </mxCell>
        <mxCell id="J4p2vavXGs8pfv7Cpsuk-117" value="e0/1" style="rounded=1;whiteSpace=wrap;html=1;arcSize=40;imageHeight=24;fontSize=10;imageWidth=24;" parent="J4p2vavXGs8pfv7Cpsuk-19" vertex="1">
          <mxGeometry x="291" y="128" width="24" height="14" as="geometry" />
        </mxCell>
        <mxCell id="J4p2vavXGs8pfv7Cpsuk-118" value="e0/2" style="rounded=1;whiteSpace=wrap;html=1;arcSize=40;imageHeight=24;fontSize=10;imageWidth=24;" parent="J4p2vavXGs8pfv7Cpsuk-19" vertex="1">
          <mxGeometry x="377" y="149" width="24" height="14" as="geometry" />
        </mxCell>
        <mxCell id="J4p2vavXGs8pfv7Cpsuk-119" value="e0/2" style="rounded=1;whiteSpace=wrap;html=1;arcSize=40;imageHeight=24;fontSize=10;imageWidth=24;" parent="J4p2vavXGs8pfv7Cpsuk-19" vertex="1">
          <mxGeometry x="197" y="52" width="24" height="14" as="geometry" />
        </mxCell>
        <mxCell id="J4p2vavXGs8pfv7Cpsuk-120" value="e0/0" style="rounded=1;whiteSpace=wrap;html=1;arcSize=40;imageHeight=24;fontSize=10;imageWidth=24;" parent="J4p2vavXGs8pfv7Cpsuk-19" vertex="1">
          <mxGeometry x="597" y="150" width="24" height="14" as="geometry" />
        </mxCell>
        <mxCell id="J4p2vavXGs8pfv7Cpsuk-121" value="e0/0" style="rounded=1;whiteSpace=wrap;html=1;arcSize=40;imageHeight=24;fontSize=10;imageWidth=24;" parent="J4p2vavXGs8pfv7Cpsuk-19" vertex="1">
          <mxGeometry x="597" y="50" width="24" height="14" as="geometry" />
        </mxCell>
        <mxCell id="J4p2vavXGs8pfv7Cpsuk-122" value="e0/0" style="rounded=1;whiteSpace=wrap;html=1;arcSize=40;imageHeight=24;fontSize=10;imageWidth=24;" parent="J4p2vavXGs8pfv7Cpsuk-19" vertex="1">
          <mxGeometry x="777" y="50" width="24" height="14" as="geometry" />
        </mxCell>
        <mxCell id="J4p2vavXGs8pfv7Cpsuk-123" value="e0/0" style="rounded=1;whiteSpace=wrap;html=1;arcSize=40;imageHeight=24;fontSize=10;imageWidth=24;" parent="J4p2vavXGs8pfv7Cpsuk-19" vertex="1">
          <mxGeometry x="777" y="150" width="24" height="14" as="geometry" />
        </mxCell>
        <mxCell id="J4p2vavXGs8pfv7Cpsuk-124" value="e0/1" style="rounded=1;whiteSpace=wrap;html=1;arcSize=40;imageHeight=24;fontSize=10;imageWidth=24;" parent="J4p2vavXGs8pfv7Cpsuk-19" vertex="1">
          <mxGeometry x="688" y="49" width="24" height="14" as="geometry" />
        </mxCell>
        <mxCell id="J4p2vavXGs8pfv7Cpsuk-125" value="e0/1" style="rounded=1;whiteSpace=wrap;html=1;arcSize=40;imageHeight=24;fontSize=10;imageWidth=24;" parent="J4p2vavXGs8pfv7Cpsuk-19" vertex="1">
          <mxGeometry x="688" y="149" width="24" height="14" as="geometry" />
        </mxCell>
        <mxCell id="J4p2vavXGs8pfv7Cpsuk-126" value="e0/1" style="rounded=1;whiteSpace=wrap;html=1;arcSize=40;imageHeight=24;fontSize=10;imageWidth=24;" parent="J4p2vavXGs8pfv7Cpsuk-19" vertex="1">
          <mxGeometry x="868" y="50" width="24" height="14" as="geometry" />
        </mxCell>
        <mxCell id="J4p2vavXGs8pfv7Cpsuk-127" value="e0/1" style="rounded=1;whiteSpace=wrap;html=1;arcSize=40;imageHeight=24;fontSize=10;imageWidth=24;" parent="J4p2vavXGs8pfv7Cpsuk-19" vertex="1">
          <mxGeometry x="868" y="150" width="24" height="14" as="geometry" />
        </mxCell>
        <mxCell id="J4p2vavXGs8pfv7Cpsuk-128" value="e0/2" style="rounded=1;whiteSpace=wrap;html=1;arcSize=40;imageHeight=24;fontSize=10;imageWidth=24;" parent="J4p2vavXGs8pfv7Cpsuk-19" vertex="1">
          <mxGeometry x="642" y="81" width="24" height="14" as="geometry" />
        </mxCell>
        <mxCell id="J4p2vavXGs8pfv7Cpsuk-129" value="e0/2" style="rounded=1;whiteSpace=wrap;html=1;arcSize=40;imageHeight=24;fontSize=10;imageWidth=24;" parent="J4p2vavXGs8pfv7Cpsuk-19" vertex="1">
          <mxGeometry x="642" y="119" width="24" height="14" as="geometry" />
        </mxCell>
        <mxCell id="J4p2vavXGs8pfv7Cpsuk-130" value="e0/2" style="rounded=1;whiteSpace=wrap;html=1;arcSize=40;imageHeight=24;fontSize=10;imageWidth=24;" parent="J4p2vavXGs8pfv7Cpsuk-19" vertex="1">
          <mxGeometry x="822" y="81" width="24" height="14" as="geometry" />
        </mxCell>
        <mxCell id="J4p2vavXGs8pfv7Cpsuk-131" value="e0/2" style="rounded=1;whiteSpace=wrap;html=1;arcSize=40;imageHeight=24;fontSize=10;imageWidth=24;" parent="J4p2vavXGs8pfv7Cpsuk-19" vertex="1">
          <mxGeometry x="822" y="118" width="24" height="14" as="geometry" />
        </mxCell>
        <mxCell id="J4p2vavXGs8pfv7Cpsuk-132" value="e0/3" style="rounded=1;whiteSpace=wrap;html=1;arcSize=40;imageHeight=24;fontSize=10;imageWidth=24;" parent="J4p2vavXGs8pfv7Cpsuk-19" vertex="1">
          <mxGeometry x="812" y="181" width="24" height="14" as="geometry" />
        </mxCell>
        <mxCell id="J4p2vavXGs8pfv7Cpsuk-133" value="e0/3" style="rounded=1;whiteSpace=wrap;html=1;arcSize=40;imageHeight=24;fontSize=10;imageWidth=24;" parent="J4p2vavXGs8pfv7Cpsuk-19" vertex="1">
          <mxGeometry x="651" y="181" width="24" height="14" as="geometry" />
        </mxCell>
        <mxCell id="J4p2vavXGs8pfv7Cpsuk-134" value="e0/3" style="rounded=1;whiteSpace=wrap;html=1;arcSize=40;imageHeight=24;fontSize=10;imageWidth=24;" parent="J4p2vavXGs8pfv7Cpsuk-19" vertex="1">
          <mxGeometry x="868" y="67" width="24" height="14" as="geometry" />
        </mxCell>
        <mxCell id="J4p2vavXGs8pfv7Cpsuk-135" value="e0/0" style="rounded=1;whiteSpace=wrap;html=1;arcSize=40;imageHeight=24;fontSize=10;imageWidth=24;" parent="J4p2vavXGs8pfv7Cpsuk-19" vertex="1">
          <mxGeometry x="1023" y="49" width="24" height="14" as="geometry" />
        </mxCell>
        <mxCell id="J4p2vavXGs8pfv7Cpsuk-136" value="e0/2" style="rounded=1;whiteSpace=wrap;html=1;arcSize=40;imageHeight=24;fontSize=10;imageWidth=24;" parent="J4p2vavXGs8pfv7Cpsuk-19" vertex="1">
          <mxGeometry x="150" y="268" width="24" height="14" as="geometry" />
        </mxCell>
        <mxCell id="J4p2vavXGs8pfv7Cpsuk-137" value="e0/2" style="rounded=1;whiteSpace=wrap;html=1;arcSize=40;imageHeight=24;fontSize=10;imageWidth=24;" parent="J4p2vavXGs8pfv7Cpsuk-19" vertex="1">
          <mxGeometry x="331" y="267" width="24" height="14" as="geometry" />
        </mxCell>
        <mxCell id="J4p2vavXGs8pfv7Cpsuk-138" value="IPv4" parent="0" />
        <mxCell id="J4p2vavXGs8pfv7Cpsuk-142" value=".100.4" style="text;html=1;align=center;verticalAlign=middle;whiteSpace=wrap;rounded=0;" parent="J4p2vavXGs8pfv7Cpsuk-138" vertex="1">
          <mxGeometry x="84" y="601" width="60" height="30" as="geometry" />
        </mxCell>
        <mxCell id="J4p2vavXGs8pfv7Cpsuk-143" value=".100.45" style="text;html=1;align=center;verticalAlign=middle;whiteSpace=wrap;rounded=0;" parent="J4p2vavXGs8pfv7Cpsuk-138" vertex="1">
          <mxGeometry x="197" y="627" width="100" height="30" as="geometry" />
        </mxCell>
        <mxCell id="J4p2vavXGs8pfv7Cpsuk-145" value=".110.17" style="text;html=1;align=center;verticalAlign=middle;whiteSpace=wrap;rounded=0;" parent="J4p2vavXGs8pfv7Cpsuk-138" vertex="1">
          <mxGeometry x="580" y="592" width="60" height="30" as="geometry" />
        </mxCell>
        <mxCell id="J4p2vavXGs8pfv7Cpsuk-148" value="VLAN 10" style="text;html=1;align=center;verticalAlign=middle;whiteSpace=wrap;rounded=0;" parent="J4p2vavXGs8pfv7Cpsuk-138" vertex="1">
          <mxGeometry x="100" y="810" width="60" height="30" as="geometry" />
        </mxCell>
        <mxCell id="J4p2vavXGs8pfv7Cpsuk-151" value="VLAN 20" style="text;html=1;align=center;verticalAlign=middle;whiteSpace=wrap;rounded=0;" parent="J4p2vavXGs8pfv7Cpsuk-138" vertex="1">
          <mxGeometry x="286" y="810" width="60" height="30" as="geometry" />
        </mxCell>
        <mxCell id="J4p2vavXGs8pfv7Cpsuk-152" value="192.168.100.3" style="text;html=1;align=center;verticalAlign=middle;whiteSpace=wrap;rounded=0;" parent="J4p2vavXGs8pfv7Cpsuk-138" vertex="1">
          <mxGeometry x="60" y="740" width="60" height="30" as="geometry" />
        </mxCell>
        <mxCell id="J4p2vavXGs8pfv7Cpsuk-153" value="192.168.100.2" style="text;html=1;align=center;verticalAlign=middle;whiteSpace=wrap;rounded=0;" parent="J4p2vavXGs8pfv7Cpsuk-138" vertex="1">
          <mxGeometry x="390" y="740" width="60" height="30" as="geometry" />
        </mxCell>
        <mxCell id="J4p2vavXGs8pfv7Cpsuk-157" value="VLAN 100" style="text;html=1;align=center;verticalAlign=middle;whiteSpace=wrap;rounded=0;" parent="J4p2vavXGs8pfv7Cpsuk-138" vertex="1">
          <mxGeometry x="262" y="679" width="60" height="30" as="geometry" />
        </mxCell>
        <mxCell id="MX5YEaizh7SohLsSGQHc-4" value="VLAN 30" style="text;html=1;align=center;verticalAlign=middle;whiteSpace=wrap;rounded=0;" parent="J4p2vavXGs8pfv7Cpsuk-138" vertex="1">
          <mxGeometry x="585" y="740" width="60" height="30" as="geometry" />
        </mxCell>
        <mxCell id="MX5YEaizh7SohLsSGQHc-5" value="VLAN 40" style="text;html=1;align=center;verticalAlign=middle;whiteSpace=wrap;rounded=0;" parent="J4p2vavXGs8pfv7Cpsuk-138" vertex="1">
          <mxGeometry x="820" y="740" width="60" height="30" as="geometry" />
        </mxCell>
        <mxCell id="MX5YEaizh7SohLsSGQHc-9" value="VLAN 50" style="text;html=1;align=center;verticalAlign=middle;whiteSpace=wrap;rounded=0;" parent="J4p2vavXGs8pfv7Cpsuk-138" vertex="1">
          <mxGeometry x="1090" y="300" width="60" height="30" as="geometry" />
        </mxCell>
        <mxCell id="MX5YEaizh7SohLsSGQHc-10" value="VLAN 60" style="text;html=1;align=center;verticalAlign=middle;whiteSpace=wrap;rounded=0;" parent="J4p2vavXGs8pfv7Cpsuk-138" vertex="1">
          <mxGeometry x="1230" y="300" width="60" height="30" as="geometry" />
        </mxCell>
        <mxCell id="MX5YEaizh7SohLsSGQHc-11" value="192.168.10.1" style="text;html=1;align=center;verticalAlign=middle;whiteSpace=wrap;rounded=0;" parent="J4p2vavXGs8pfv7Cpsuk-138" vertex="1">
          <mxGeometry x="60" y="860" width="60" height="30" as="geometry" />
        </mxCell>
        <mxCell id="MX5YEaizh7SohLsSGQHc-14" value=".10.4" style="text;html=1;align=center;verticalAlign=middle;whiteSpace=wrap;rounded=0;" parent="J4p2vavXGs8pfv7Cpsuk-138" vertex="1">
          <mxGeometry x="87" y="579" width="60" height="30" as="geometry" />
        </mxCell>
        <mxCell id="MX5YEaizh7SohLsSGQHc-15" value="192.168.120.29" style="text;html=1;align=center;verticalAlign=middle;whiteSpace=wrap;rounded=0;" parent="J4p2vavXGs8pfv7Cpsuk-138" vertex="1">
          <mxGeometry x="1040" y="240" width="100" height="30" as="geometry" />
        </mxCell>
        <mxCell id="MX5YEaizh7SohLsSGQHc-18" value=".120.28" style="text;html=1;align=center;verticalAlign=middle;whiteSpace=wrap;rounded=0;" parent="J4p2vavXGs8pfv7Cpsuk-138" vertex="1">
          <mxGeometry x="1082" y="137" width="100" height="30" as="geometry" />
        </mxCell>
        <mxCell id="MX5YEaizh7SohLsSGQHc-19" value="192.168.50.30" style="text;html=1;align=center;verticalAlign=middle;whiteSpace=wrap;rounded=0;" parent="J4p2vavXGs8pfv7Cpsuk-138" vertex="1">
          <mxGeometry x="1073" y="410" width="100" height="30" as="geometry" />
        </mxCell>
        <mxCell id="MX5YEaizh7SohLsSGQHc-20" value="192.168.60.31" style="text;html=1;align=center;verticalAlign=middle;whiteSpace=wrap;rounded=0;" parent="J4p2vavXGs8pfv7Cpsuk-138" vertex="1">
          <mxGeometry x="1214" y="410" width="100" height="30" as="geometry" />
        </mxCell>
        <mxCell id="MX5YEaizh7SohLsSGQHc-21" value=".60.28" style="text;html=1;align=center;verticalAlign=middle;whiteSpace=wrap;rounded=0;" parent="J4p2vavXGs8pfv7Cpsuk-138" vertex="1">
          <mxGeometry x="1085" y="125" width="100" height="30" as="geometry" />
        </mxCell>
        <mxCell id="MX5YEaizh7SohLsSGQHc-22" value=".50.28" style="text;html=1;align=center;verticalAlign=middle;whiteSpace=wrap;rounded=0;" parent="J4p2vavXGs8pfv7Cpsuk-138" vertex="1">
          <mxGeometry x="1085" y="114" width="100" height="30" as="geometry" />
        </mxCell>
        <mxCell id="MX5YEaizh7SohLsSGQHc-25" value=".250.28" style="text;html=1;align=center;verticalAlign=middle;whiteSpace=wrap;rounded=0;" parent="J4p2vavXGs8pfv7Cpsuk-138" vertex="1">
          <mxGeometry x="1082" y="149" width="100" height="30" as="geometry" />
        </mxCell>
        <mxCell id="MX5YEaizh7SohLsSGQHc-26" value="VLAN 120" style="text;html=1;align=center;verticalAlign=middle;whiteSpace=wrap;rounded=0;" parent="J4p2vavXGs8pfv7Cpsuk-138" vertex="1">
          <mxGeometry x="1160" y="310" width="60" height="30" as="geometry" />
        </mxCell>
        <mxCell id="MX5YEaizh7SohLsSGQHc-27" value="VLAN 1000" style="text;html=1;align=center;verticalAlign=middle;whiteSpace=wrap;rounded=0;" parent="J4p2vavXGs8pfv7Cpsuk-138" vertex="1">
          <mxGeometry x="1159" y="323" width="70" height="30" as="geometry" />
        </mxCell>
        <mxCell id="MX5YEaizh7SohLsSGQHc-28" value="192.168.110.9" style="text;html=1;align=center;verticalAlign=middle;whiteSpace=wrap;rounded=0;" parent="J4p2vavXGs8pfv7Cpsuk-138" vertex="1">
          <mxGeometry x="554" y="709" width="60" height="30" as="geometry" />
        </mxCell>
        <mxCell id="MX5YEaizh7SohLsSGQHc-31" value="192.168.110.10" style="text;html=1;align=center;verticalAlign=middle;whiteSpace=wrap;rounded=0;" parent="J4p2vavXGs8pfv7Cpsuk-138" vertex="1">
          <mxGeometry x="850" y="710" width="60" height="30" as="geometry" />
        </mxCell>
        <mxCell id="MX5YEaizh7SohLsSGQHc-33" value="192.168.30.8" style="text;html=1;align=center;verticalAlign=middle;whiteSpace=wrap;rounded=0;" parent="J4p2vavXGs8pfv7Cpsuk-138" vertex="1">
          <mxGeometry x="600" y="850" width="60" height="30" as="geometry" />
        </mxCell>
        <mxCell id="MX5YEaizh7SohLsSGQHc-34" value="192.168.40.6" style="text;html=1;align=center;verticalAlign=middle;whiteSpace=wrap;rounded=0;" parent="J4p2vavXGs8pfv7Cpsuk-138" vertex="1">
          <mxGeometry x="780" y="850" width="60" height="30" as="geometry" />
        </mxCell>
        <mxCell id="MX5YEaizh7SohLsSGQHc-35" value=".40.17" style="text;html=1;align=center;verticalAlign=middle;whiteSpace=wrap;rounded=0;" parent="J4p2vavXGs8pfv7Cpsuk-138" vertex="1">
          <mxGeometry x="583" y="579" width="60" height="30" as="geometry" />
        </mxCell>
        <mxCell id="MX5YEaizh7SohLsSGQHc-36" value=".30.17" style="text;html=1;align=center;verticalAlign=middle;whiteSpace=wrap;rounded=0;" parent="J4p2vavXGs8pfv7Cpsuk-138" vertex="1">
          <mxGeometry x="583" y="566" width="60" height="30" as="geometry" />
        </mxCell>
        <mxCell id="MX5YEaizh7SohLsSGQHc-37" value=".40.16" style="text;html=1;align=center;verticalAlign=middle;whiteSpace=wrap;rounded=0;" parent="J4p2vavXGs8pfv7Cpsuk-138" vertex="1">
          <mxGeometry x="763" y="576" width="60" height="30" as="geometry" />
        </mxCell>
        <mxCell id="MX5YEaizh7SohLsSGQHc-38" value=".110.16" style="text;html=1;align=center;verticalAlign=middle;whiteSpace=wrap;rounded=0;" parent="J4p2vavXGs8pfv7Cpsuk-138" vertex="1">
          <mxGeometry x="759" y="587" width="62" height="30" as="geometry" />
        </mxCell>
        <mxCell id="MX5YEaizh7SohLsSGQHc-39" value=".30.16" style="text;html=1;align=center;verticalAlign=middle;whiteSpace=wrap;rounded=0;" parent="J4p2vavXGs8pfv7Cpsuk-138" vertex="1">
          <mxGeometry x="763" y="566" width="60" height="30" as="geometry" />
        </mxCell>
        <mxCell id="MX5YEaizh7SohLsSGQHc-40" value=".250.17" style="text;html=1;align=center;verticalAlign=middle;whiteSpace=wrap;rounded=0;" parent="J4p2vavXGs8pfv7Cpsuk-138" vertex="1">
          <mxGeometry x="580" y="603" width="60" height="30" as="geometry" />
        </mxCell>
        <mxCell id="MX5YEaizh7SohLsSGQHc-41" value=".250.16" style="text;html=1;align=center;verticalAlign=middle;whiteSpace=wrap;rounded=0;" parent="J4p2vavXGs8pfv7Cpsuk-138" vertex="1">
          <mxGeometry x="759" y="598" width="60" height="30" as="geometry" />
        </mxCell>
        <mxCell id="FMeyuEi840-PLyL5-deW-1" value=".10.45" style="text;html=1;align=center;verticalAlign=middle;whiteSpace=wrap;rounded=0;" parent="J4p2vavXGs8pfv7Cpsuk-138" vertex="1">
          <mxGeometry x="200" y="607" width="100" height="30" as="geometry" />
        </mxCell>
        <mxCell id="FMeyuEi840-PLyL5-deW-2" value=".20.4" style="text;html=1;align=center;verticalAlign=middle;whiteSpace=wrap;rounded=0;" parent="J4p2vavXGs8pfv7Cpsuk-138" vertex="1">
          <mxGeometry x="87" y="590" width="60" height="30" as="geometry" />
        </mxCell>
        <mxCell id="FMeyuEi840-PLyL5-deW-5" value=".250.4" style="text;html=1;align=center;verticalAlign=middle;whiteSpace=wrap;rounded=0;" parent="J4p2vavXGs8pfv7Cpsuk-138" vertex="1">
          <mxGeometry x="84" y="612" width="60" height="30" as="geometry" />
        </mxCell>
        <mxCell id="FMeyuEi840-PLyL5-deW-6" value=".100.5" style="text;html=1;align=center;verticalAlign=middle;whiteSpace=wrap;rounded=0;" parent="J4p2vavXGs8pfv7Cpsuk-138" vertex="1">
          <mxGeometry x="361" y="598" width="60" height="30" as="geometry" />
        </mxCell>
        <mxCell id="FMeyuEi840-PLyL5-deW-7" value=".10.5" style="text;html=1;align=center;verticalAlign=middle;whiteSpace=wrap;rounded=0;" parent="J4p2vavXGs8pfv7Cpsuk-138" vertex="1">
          <mxGeometry x="365" y="576" width="60" height="30" as="geometry" />
        </mxCell>
        <mxCell id="FMeyuEi840-PLyL5-deW-8" value=".20.5" style="text;html=1;align=center;verticalAlign=middle;whiteSpace=wrap;rounded=0;" parent="J4p2vavXGs8pfv7Cpsuk-138" vertex="1">
          <mxGeometry x="365" y="587" width="60" height="30" as="geometry" />
        </mxCell>
        <mxCell id="FMeyuEi840-PLyL5-deW-9" value=".250.5" style="text;html=1;align=center;verticalAlign=middle;whiteSpace=wrap;rounded=0;" parent="J4p2vavXGs8pfv7Cpsuk-138" vertex="1">
          <mxGeometry x="361" y="609" width="60" height="30" as="geometry" />
        </mxCell>
        <mxCell id="FMeyuEi840-PLyL5-deW-10" value=".20.45" style="text;html=1;align=center;verticalAlign=middle;whiteSpace=wrap;rounded=0;" parent="J4p2vavXGs8pfv7Cpsuk-138" vertex="1">
          <mxGeometry x="200" y="617" width="100" height="30" as="geometry" />
        </mxCell>
        <mxCell id="FMeyuEi840-PLyL5-deW-11" value=".250.45" style="text;html=1;align=center;verticalAlign=middle;whiteSpace=wrap;rounded=0;" parent="J4p2vavXGs8pfv7Cpsuk-138" vertex="1">
          <mxGeometry x="197" y="637" width="100" height="30" as="geometry" />
        </mxCell>
        <mxCell id="FMeyuEi840-PLyL5-deW-13" value="VLAN 1000" style="text;html=1;align=center;verticalAlign=middle;whiteSpace=wrap;rounded=0;" parent="J4p2vavXGs8pfv7Cpsuk-138" vertex="1">
          <mxGeometry x="220" y="722" width="60" height="30" as="geometry" />
        </mxCell>
        <mxCell id="FMeyuEi840-PLyL5-deW-14" value="VLAN 1000" style="text;html=1;align=center;verticalAlign=middle;whiteSpace=wrap;rounded=0;" parent="J4p2vavXGs8pfv7Cpsuk-138" vertex="1">
          <mxGeometry x="702" y="752" width="68" height="30" as="geometry" />
        </mxCell>
        <mxCell id="FMeyuEi840-PLyL5-deW-15" value="VLAN 110" style="text;html=1;align=center;verticalAlign=middle;whiteSpace=wrap;rounded=0;" parent="J4p2vavXGs8pfv7Cpsuk-138" vertex="1">
          <mxGeometry x="702" y="740" width="60" height="30" as="geometry" />
        </mxCell>
        <mxCell id="FMeyuEi840-PLyL5-deW-17" value="192.168.20.7" style="text;html=1;align=center;verticalAlign=middle;whiteSpace=wrap;rounded=0;" parent="J4p2vavXGs8pfv7Cpsuk-138" vertex="1">
          <mxGeometry x="380" y="860" width="60" height="30" as="geometry" />
        </mxCell>
        <mxCell id="FMeyuEi840-PLyL5-deW-18" value="172.16.10.x/31" style="text;html=1;align=center;verticalAlign=middle;whiteSpace=wrap;rounded=0;" parent="J4p2vavXGs8pfv7Cpsuk-138" vertex="1">
          <mxGeometry x="200" y="440" width="100" height="30" as="geometry" />
        </mxCell>
        <mxCell id="FMeyuEi840-PLyL5-deW-19" value="172.16.20.x" style="text;html=1;align=center;verticalAlign=middle;whiteSpace=wrap;rounded=0;" parent="J4p2vavXGs8pfv7Cpsuk-138" vertex="1">
          <mxGeometry x="686" y="490" width="100" height="30" as="geometry" />
        </mxCell>
        <mxCell id="FMeyuEi840-PLyL5-deW-20" value="172.16.100.x/31" style="text;html=1;align=center;verticalAlign=middle;whiteSpace=wrap;rounded=0;" parent="J4p2vavXGs8pfv7Cpsuk-138" vertex="1">
          <mxGeometry x="694" y="105" width="100" height="30" as="geometry" />
        </mxCell>
        <mxCell id="FMeyuEi840-PLyL5-deW-21" value="80.80.100.x/31" style="text;html=1;align=center;verticalAlign=middle;whiteSpace=wrap;rounded=0;" parent="J4p2vavXGs8pfv7Cpsuk-138" vertex="1">
          <mxGeometry x="170" y="167" width="100" height="30" as="geometry" />
        </mxCell>
        <mxCell id="FMeyuEi840-PLyL5-deW-22" value="80.90.100.x/31" style="text;html=1;align=center;verticalAlign=middle;whiteSpace=wrap;rounded=0;" parent="J4p2vavXGs8pfv7Cpsuk-138" vertex="1">
          <mxGeometry x="480" y="100" width="100" height="30" as="geometry" />
        </mxCell>
        <mxCell id="FMeyuEi840-PLyL5-deW-23" value="80.100.100.x/31" style="text;html=1;align=center;verticalAlign=middle;whiteSpace=wrap;rounded=0;" parent="J4p2vavXGs8pfv7Cpsuk-138" vertex="1">
          <mxGeometry x="688" y="261" width="100" height="30" as="geometry" />
        </mxCell>
        <mxCell id="FMeyuEi840-PLyL5-deW-24" value=".0" style="text;html=1;align=center;verticalAlign=middle;whiteSpace=wrap;rounded=0;" parent="J4p2vavXGs8pfv7Cpsuk-138" vertex="1">
          <mxGeometry x="58" y="397" width="30" height="30" as="geometry" />
        </mxCell>
        <mxCell id="FMeyuEi840-PLyL5-deW-25" value=".1" style="text;html=1;align=center;verticalAlign=middle;whiteSpace=wrap;rounded=0;" parent="J4p2vavXGs8pfv7Cpsuk-138" vertex="1">
          <mxGeometry x="106" y="335" width="30" height="30" as="geometry" />
        </mxCell>
        <mxCell id="FMeyuEi840-PLyL5-deW-26" value=".3" style="text;html=1;align=center;verticalAlign=middle;whiteSpace=wrap;rounded=0;" parent="J4p2vavXGs8pfv7Cpsuk-138" vertex="1">
          <mxGeometry x="140" y="338" width="30" height="30" as="geometry" />
        </mxCell>
        <mxCell id="FMeyuEi840-PLyL5-deW-27" value=".5" style="text;html=1;align=center;verticalAlign=middle;whiteSpace=wrap;rounded=0;" parent="J4p2vavXGs8pfv7Cpsuk-138" vertex="1">
          <mxGeometry x="284" y="337" width="30" height="30" as="geometry" />
        </mxCell>
        <mxCell id="FMeyuEi840-PLyL5-deW-28" value=".2" style="text;html=1;align=center;verticalAlign=middle;whiteSpace=wrap;rounded=0;" parent="J4p2vavXGs8pfv7Cpsuk-138" vertex="1">
          <mxGeometry x="140" y="397" width="30" height="30" as="geometry" />
        </mxCell>
        <mxCell id="FMeyuEi840-PLyL5-deW-29" value=".4" style="text;html=1;align=center;verticalAlign=middle;whiteSpace=wrap;rounded=0;" parent="J4p2vavXGs8pfv7Cpsuk-138" vertex="1">
          <mxGeometry x="186" y="399" width="30" height="30" as="geometry" />
        </mxCell>
        <mxCell id="FMeyuEi840-PLyL5-deW-30" value=".7" style="text;html=1;align=center;verticalAlign=middle;whiteSpace=wrap;rounded=0;" parent="J4p2vavXGs8pfv7Cpsuk-138" vertex="1">
          <mxGeometry x="185" y="337" width="30" height="30" as="geometry" />
        </mxCell>
        <mxCell id="FMeyuEi840-PLyL5-deW-31" value=".6" style="text;html=1;align=center;verticalAlign=middle;whiteSpace=wrap;rounded=0;" parent="J4p2vavXGs8pfv7Cpsuk-138" vertex="1">
          <mxGeometry x="288" y="398" width="30" height="30" as="geometry" />
        </mxCell>
        <mxCell id="FMeyuEi840-PLyL5-deW-32" value=".9" style="text;html=1;align=center;verticalAlign=middle;whiteSpace=wrap;rounded=0;" parent="J4p2vavXGs8pfv7Cpsuk-138" vertex="1">
          <mxGeometry x="320" y="338" width="30" height="30" as="geometry" />
        </mxCell>
        <mxCell id="FMeyuEi840-PLyL5-deW-33" value=".8" style="text;html=1;align=center;verticalAlign=middle;whiteSpace=wrap;rounded=0;" parent="J4p2vavXGs8pfv7Cpsuk-138" vertex="1">
          <mxGeometry x="320" y="398" width="30" height="30" as="geometry" />
        </mxCell>
        <mxCell id="FMeyuEi840-PLyL5-deW-34" value=".11" style="text;html=1;align=center;verticalAlign=middle;whiteSpace=wrap;rounded=0;" parent="J4p2vavXGs8pfv7Cpsuk-138" vertex="1">
          <mxGeometry x="350" y="337" width="30" height="30" as="geometry" />
        </mxCell>
        <mxCell id="FMeyuEi840-PLyL5-deW-35" value=".10" style="text;html=1;align=center;verticalAlign=middle;whiteSpace=wrap;rounded=0;" parent="J4p2vavXGs8pfv7Cpsuk-138" vertex="1">
          <mxGeometry x="425" y="397" width="30" height="30" as="geometry" />
        </mxCell>
        <mxCell id="FMeyuEi840-PLyL5-deW-38" value=".13" style="text;html=1;align=center;verticalAlign=middle;whiteSpace=wrap;rounded=0;" parent="J4p2vavXGs8pfv7Cpsuk-138" vertex="1">
          <mxGeometry x="137" y="487" width="30" height="30" as="geometry" />
        </mxCell>
        <mxCell id="FMeyuEi840-PLyL5-deW-39" value=".12" style="text;html=1;align=center;verticalAlign=middle;whiteSpace=wrap;rounded=0;" parent="J4p2vavXGs8pfv7Cpsuk-138" vertex="1">
          <mxGeometry x="137" y="537" width="30" height="30" as="geometry" />
        </mxCell>
        <mxCell id="FMeyuEi840-PLyL5-deW-40" value=".17" style="text;html=1;align=center;verticalAlign=middle;whiteSpace=wrap;rounded=0;" parent="J4p2vavXGs8pfv7Cpsuk-138" vertex="1">
          <mxGeometry x="182" y="485" width="30" height="30" as="geometry" />
        </mxCell>
        <mxCell id="FMeyuEi840-PLyL5-deW-41" value=".14" style="text;html=1;align=center;verticalAlign=middle;whiteSpace=wrap;rounded=0;" parent="J4p2vavXGs8pfv7Cpsuk-138" vertex="1">
          <mxGeometry x="192" y="541" width="30" height="30" as="geometry" />
        </mxCell>
        <mxCell id="FMeyuEi840-PLyL5-deW-42" value=".15" style="text;html=1;align=center;verticalAlign=middle;whiteSpace=wrap;rounded=0;" parent="J4p2vavXGs8pfv7Cpsuk-138" vertex="1">
          <mxGeometry x="289" y="486" width="30" height="30" as="geometry" />
        </mxCell>
        <mxCell id="FMeyuEi840-PLyL5-deW-43" value=".16" style="text;html=1;align=center;verticalAlign=middle;whiteSpace=wrap;rounded=0;" parent="J4p2vavXGs8pfv7Cpsuk-138" vertex="1">
          <mxGeometry x="283" y="541" width="30" height="30" as="geometry" />
        </mxCell>
        <mxCell id="FMeyuEi840-PLyL5-deW-44" value=".19" style="text;html=1;align=center;verticalAlign=middle;whiteSpace=wrap;rounded=0;" parent="J4p2vavXGs8pfv7Cpsuk-138" vertex="1">
          <mxGeometry x="339" y="487" width="30" height="30" as="geometry" />
        </mxCell>
        <mxCell id="FMeyuEi840-PLyL5-deW-45" value=".18" style="text;html=1;align=center;verticalAlign=middle;whiteSpace=wrap;rounded=0;" parent="J4p2vavXGs8pfv7Cpsuk-138" vertex="1">
          <mxGeometry x="339" y="537" width="30" height="30" as="geometry" />
        </mxCell>
        <mxCell id="FMeyuEi840-PLyL5-deW-46" value=".10" style="text;html=1;align=center;verticalAlign=middle;whiteSpace=wrap;rounded=0;" parent="J4p2vavXGs8pfv7Cpsuk-138" vertex="1">
          <mxGeometry x="160" y="230" width="30" height="30" as="geometry" />
        </mxCell>
        <mxCell id="FMeyuEi840-PLyL5-deW-47" value=".11" style="text;html=1;align=center;verticalAlign=middle;whiteSpace=wrap;rounded=0;" parent="J4p2vavXGs8pfv7Cpsuk-138" vertex="1">
          <mxGeometry x="162" y="100" width="30" height="30" as="geometry" />
        </mxCell>
        <mxCell id="FMeyuEi840-PLyL5-deW-48" value=".12" style="text;html=1;align=center;verticalAlign=middle;whiteSpace=wrap;rounded=0;" parent="J4p2vavXGs8pfv7Cpsuk-138" vertex="1">
          <mxGeometry x="339" y="231" width="30" height="30" as="geometry" />
        </mxCell>
        <mxCell id="FMeyuEi840-PLyL5-deW-49" value=".13" style="text;html=1;align=center;verticalAlign=middle;whiteSpace=wrap;rounded=0;" parent="J4p2vavXGs8pfv7Cpsuk-138" vertex="1">
          <mxGeometry x="338" y="199" width="32" height="31" as="geometry" />
        </mxCell>
        <mxCell id="FMeyuEi840-PLyL5-deW-50" value=".14" style="text;html=1;align=center;verticalAlign=middle;whiteSpace=wrap;rounded=0;" parent="J4p2vavXGs8pfv7Cpsuk-138" vertex="1">
          <mxGeometry x="253" y="114" width="30" height="30" as="geometry" />
        </mxCell>
        <mxCell id="FMeyuEi840-PLyL5-deW-51" value=".15" style="text;html=1;align=center;verticalAlign=middle;whiteSpace=wrap;rounded=0;" parent="J4p2vavXGs8pfv7Cpsuk-138" vertex="1">
          <mxGeometry x="247" y="85" width="30" height="30" as="geometry" />
        </mxCell>
        <mxCell id="FMeyuEi840-PLyL5-deW-52" value="80.90.100.10" style="text;html=1;align=center;verticalAlign=middle;whiteSpace=wrap;rounded=0;" parent="J4p2vavXGs8pfv7Cpsuk-138" vertex="1">
          <mxGeometry x="238" y="33" width="100" height="30" as="geometry" />
        </mxCell>
        <mxCell id="FMeyuEi840-PLyL5-deW-54" value=".11" style="text;html=1;align=center;verticalAlign=middle;whiteSpace=wrap;rounded=0;" parent="J4p2vavXGs8pfv7Cpsuk-138" vertex="1">
          <mxGeometry x="562" y="33" width="32" height="30" as="geometry" />
        </mxCell>
        <mxCell id="FMeyuEi840-PLyL5-deW-55" value=".13" style="text;html=1;align=center;verticalAlign=middle;whiteSpace=wrap;rounded=0;" parent="J4p2vavXGs8pfv7Cpsuk-138" vertex="1">
          <mxGeometry x="561" y="132" width="29" height="30" as="geometry" />
        </mxCell>
        <mxCell id="FMeyuEi840-PLyL5-deW-56" value=".12" style="text;html=1;align=center;verticalAlign=middle;whiteSpace=wrap;rounded=0;" parent="J4p2vavXGs8pfv7Cpsuk-138" vertex="1">
          <mxGeometry x="460" y="151" width="40" height="30" as="geometry" />
        </mxCell>
        <mxCell id="FMeyuEi840-PLyL5-deW-58" value=".10" style="text;html=1;align=center;verticalAlign=middle;whiteSpace=wrap;rounded=0;" parent="J4p2vavXGs8pfv7Cpsuk-138" vertex="1">
          <mxGeometry x="896" y="33" width="32" height="30" as="geometry" />
        </mxCell>
        <mxCell id="FMeyuEi840-PLyL5-deW-59" value=".11" style="text;html=1;align=center;verticalAlign=middle;whiteSpace=wrap;rounded=0;" parent="J4p2vavXGs8pfv7Cpsuk-138" vertex="1">
          <mxGeometry x="990" y="33" width="32" height="30" as="geometry" />
        </mxCell>
        <mxCell id="FMeyuEi840-PLyL5-deW-60" value=".14" style="text;html=1;align=center;verticalAlign=middle;whiteSpace=wrap;rounded=0;" parent="J4p2vavXGs8pfv7Cpsuk-138" vertex="1">
          <mxGeometry x="896" y="150" width="32" height="30" as="geometry" />
        </mxCell>
        <mxCell id="FMeyuEi840-PLyL5-deW-61" value=".15" style="text;html=1;align=center;verticalAlign=middle;whiteSpace=wrap;rounded=0;" parent="J4p2vavXGs8pfv7Cpsuk-138" vertex="1">
          <mxGeometry x="990" y="150" width="32" height="30" as="geometry" />
        </mxCell>
        <mxCell id="FMeyuEi840-PLyL5-deW-62" value=".12" style="text;html=1;align=center;verticalAlign=middle;whiteSpace=wrap;rounded=0;" parent="J4p2vavXGs8pfv7Cpsuk-138" vertex="1">
          <mxGeometry x="896" y="63" width="32" height="30" as="geometry" />
        </mxCell>
        <mxCell id="FMeyuEi840-PLyL5-deW-63" value=".13" style="text;html=1;align=center;verticalAlign=middle;whiteSpace=wrap;rounded=0;" parent="J4p2vavXGs8pfv7Cpsuk-138" vertex="1">
          <mxGeometry x="990" y="100" width="32" height="30" as="geometry" />
        </mxCell>
        <mxCell id="FMeyuEi840-PLyL5-deW-64" value=".0" style="text;html=1;align=center;verticalAlign=middle;whiteSpace=wrap;rounded=0;" parent="J4p2vavXGs8pfv7Cpsuk-138" vertex="1">
          <mxGeometry x="650" y="495" width="30" height="30" as="geometry" />
        </mxCell>
        <mxCell id="FMeyuEi840-PLyL5-deW-65" value=".1" style="text;html=1;align=center;verticalAlign=middle;whiteSpace=wrap;rounded=0;" parent="J4p2vavXGs8pfv7Cpsuk-138" vertex="1">
          <mxGeometry x="683" y="451" width="30" height="30" as="geometry" />
        </mxCell>
        <mxCell id="FMeyuEi840-PLyL5-deW-66" value=".2" style="text;html=1;align=center;verticalAlign=middle;whiteSpace=wrap;rounded=0;" parent="J4p2vavXGs8pfv7Cpsuk-138" vertex="1">
          <mxGeometry x="665" y="527" width="30" height="30" as="geometry" />
        </mxCell>
        <mxCell id="FMeyuEi840-PLyL5-deW-67" value=".3" style="text;html=1;align=center;verticalAlign=middle;whiteSpace=wrap;rounded=0;" parent="J4p2vavXGs8pfv7Cpsuk-138" vertex="1">
          <mxGeometry x="771" y="527" width="30" height="30" as="geometry" />
        </mxCell>
        <mxCell id="FMeyuEi840-PLyL5-deW-68" value=".4" style="text;html=1;align=center;verticalAlign=middle;whiteSpace=wrap;rounded=0;" parent="J4p2vavXGs8pfv7Cpsuk-138" vertex="1">
          <mxGeometry x="788" y="497" width="30" height="30" as="geometry" />
        </mxCell>
        <mxCell id="FMeyuEi840-PLyL5-deW-69" value=".5" style="text;html=1;align=center;verticalAlign=middle;whiteSpace=wrap;rounded=0;" parent="J4p2vavXGs8pfv7Cpsuk-138" vertex="1">
          <mxGeometry x="740" y="456" width="30" height="30" as="geometry" />
        </mxCell>
        <mxCell id="FMeyuEi840-PLyL5-deW-70" value=".6" style="text;html=1;align=center;verticalAlign=middle;whiteSpace=wrap;rounded=0;" parent="J4p2vavXGs8pfv7Cpsuk-138" vertex="1">
          <mxGeometry x="844" y="549" width="30" height="30" as="geometry" />
        </mxCell>
        <mxCell id="FMeyuEi840-PLyL5-deW-71" value=".7" style="text;html=1;align=center;verticalAlign=middle;whiteSpace=wrap;rounded=0;" parent="J4p2vavXGs8pfv7Cpsuk-138" vertex="1">
          <mxGeometry x="913" y="603" width="30" height="30" as="geometry" />
        </mxCell>
        <mxCell id="FMeyuEi840-PLyL5-deW-72" value="80.110.100.x/31" style="text;html=1;align=center;verticalAlign=middle;whiteSpace=wrap;rounded=0;" parent="J4p2vavXGs8pfv7Cpsuk-138" vertex="1">
          <mxGeometry x="913" y="181" width="100" height="30" as="geometry" />
        </mxCell>
        <mxCell id="FMeyuEi840-PLyL5-deW-73" value=".10" style="text;html=1;align=center;verticalAlign=middle;whiteSpace=wrap;rounded=0;" parent="J4p2vavXGs8pfv7Cpsuk-138" vertex="1">
          <mxGeometry x="648" y="220" width="32" height="30" as="geometry" />
        </mxCell>
        <mxCell id="FMeyuEi840-PLyL5-deW-74" value=".11" style="text;html=1;align=center;verticalAlign=middle;whiteSpace=wrap;rounded=0;" parent="J4p2vavXGs8pfv7Cpsuk-138" vertex="1">
          <mxGeometry x="688" y="356" width="32" height="30" as="geometry" />
        </mxCell>
        <mxCell id="FMeyuEi840-PLyL5-deW-75" value=".12" style="text;html=1;align=center;verticalAlign=middle;whiteSpace=wrap;rounded=0;" parent="J4p2vavXGs8pfv7Cpsuk-138" vertex="1">
          <mxGeometry x="801" y="219" width="32" height="30" as="geometry" />
        </mxCell>
        <mxCell id="FMeyuEi840-PLyL5-deW-76" value=".13" style="text;html=1;align=center;verticalAlign=middle;whiteSpace=wrap;rounded=0;" parent="J4p2vavXGs8pfv7Cpsuk-138" vertex="1">
          <mxGeometry x="754" y="356" width="32" height="30" as="geometry" />
        </mxCell>
        <mxCell id="FMeyuEi840-PLyL5-deW-77" value=".0" style="text;html=1;align=center;verticalAlign=middle;whiteSpace=wrap;rounded=0;" parent="J4p2vavXGs8pfv7Cpsuk-138" vertex="1">
          <mxGeometry x="656" y="66" width="32" height="30" as="geometry" />
        </mxCell>
        <mxCell id="FMeyuEi840-PLyL5-deW-78" value=".1" style="text;html=1;align=center;verticalAlign=middle;whiteSpace=wrap;rounded=0;" parent="J4p2vavXGs8pfv7Cpsuk-138" vertex="1">
          <mxGeometry x="656" y="115" width="32" height="30" as="geometry" />
        </mxCell>
        <mxCell id="FMeyuEi840-PLyL5-deW-79" value=".2" style="text;html=1;align=center;verticalAlign=middle;whiteSpace=wrap;rounded=0;" parent="J4p2vavXGs8pfv7Cpsuk-138" vertex="1">
          <mxGeometry x="675" y="55" width="32" height="30" as="geometry" />
        </mxCell>
        <mxCell id="FMeyuEi840-PLyL5-deW-80" value=".3" style="text;html=1;align=center;verticalAlign=middle;whiteSpace=wrap;rounded=0;" parent="J4p2vavXGs8pfv7Cpsuk-138" vertex="1">
          <mxGeometry x="781" y="55" width="32" height="30" as="geometry" />
        </mxCell>
        <mxCell id="FMeyuEi840-PLyL5-deW-81" value=".4" style="text;html=1;align=center;verticalAlign=middle;whiteSpace=wrap;rounded=0;" parent="J4p2vavXGs8pfv7Cpsuk-138" vertex="1">
          <mxGeometry x="799" y="67" width="32" height="30" as="geometry" />
        </mxCell>
        <mxCell id="FMeyuEi840-PLyL5-deW-82" value=".5" style="text;html=1;align=center;verticalAlign=middle;whiteSpace=wrap;rounded=0;" parent="J4p2vavXGs8pfv7Cpsuk-138" vertex="1">
          <mxGeometry x="799" y="114" width="32" height="30" as="geometry" />
        </mxCell>
        <mxCell id="FMeyuEi840-PLyL5-deW-83" value=".6" style="text;html=1;align=center;verticalAlign=middle;whiteSpace=wrap;rounded=0;" parent="J4p2vavXGs8pfv7Cpsuk-138" vertex="1">
          <mxGeometry x="673" y="154" width="32" height="30" as="geometry" />
        </mxCell>
        <mxCell id="FMeyuEi840-PLyL5-deW-84" value=".7" style="text;html=1;align=center;verticalAlign=middle;whiteSpace=wrap;rounded=0;" parent="J4p2vavXGs8pfv7Cpsuk-138" vertex="1">
          <mxGeometry x="780" y="156" width="32" height="30" as="geometry" />
        </mxCell>
        <mxCell id="gkwPbrtXX3RrpwLwUQac-1" value="10.0.0.18" style="text;html=1;align=center;verticalAlign=middle;whiteSpace=wrap;rounded=0;" parent="J4p2vavXGs8pfv7Cpsuk-138" vertex="1">
          <mxGeometry x="764" y="410" width="60" height="30" as="geometry" />
        </mxCell>
        <mxCell id="gkwPbrtXX3RrpwLwUQac-2" value="10.0.0.16" style="text;html=1;align=center;verticalAlign=middle;whiteSpace=wrap;rounded=0;" parent="J4p2vavXGs8pfv7Cpsuk-138" vertex="1">
          <mxGeometry x="822" y="513" width="60" height="30" as="geometry" />
        </mxCell>
        <mxCell id="gkwPbrtXX3RrpwLwUQac-3" value="10.0.0.32" style="text;html=1;align=center;verticalAlign=middle;whiteSpace=wrap;rounded=0;" parent="J4p2vavXGs8pfv7Cpsuk-138" vertex="1">
          <mxGeometry x="937" y="639" width="60" height="30" as="geometry" />
        </mxCell>
        <mxCell id="gkwPbrtXX3RrpwLwUQac-4" value="10.0.0.17" style="text;html=1;align=center;verticalAlign=middle;whiteSpace=wrap;rounded=0;" parent="J4p2vavXGs8pfv7Cpsuk-138" vertex="1">
          <mxGeometry x="593" y="512" width="60" height="30" as="geometry" />
        </mxCell>
        <mxCell id="gkwPbrtXX3RrpwLwUQac-5" value="10.0.0.28" style="text;html=1;align=center;verticalAlign=middle;whiteSpace=wrap;rounded=0;" parent="J4p2vavXGs8pfv7Cpsuk-138" vertex="1">
          <mxGeometry x="1042" y="169" width="60" height="30" as="geometry" />
        </mxCell>
        <mxCell id="gkwPbrtXX3RrpwLwUQac-6" value="10.0.0.27" style="text;html=1;align=center;verticalAlign=middle;whiteSpace=wrap;rounded=0;" parent="J4p2vavXGs8pfv7Cpsuk-138" vertex="1">
          <mxGeometry x="1107" y="42" width="60" height="30" as="geometry" />
        </mxCell>
        <mxCell id="gkwPbrtXX3RrpwLwUQac-7" value="10.0.0.24" style="text;html=1;align=center;verticalAlign=middle;whiteSpace=wrap;rounded=0;" parent="J4p2vavXGs8pfv7Cpsuk-138" vertex="1">
          <mxGeometry x="588" y="169" width="60" height="30" as="geometry" />
        </mxCell>
        <mxCell id="gkwPbrtXX3RrpwLwUQac-8" value="10.0.0.22" style="text;html=1;align=center;verticalAlign=middle;whiteSpace=wrap;rounded=0;" parent="J4p2vavXGs8pfv7Cpsuk-138" vertex="1">
          <mxGeometry x="76" y="48" width="60" height="30" as="geometry" />
        </mxCell>
        <mxCell id="gkwPbrtXX3RrpwLwUQac-9" value="10.0.0.25" style="text;html=1;align=center;verticalAlign=middle;whiteSpace=wrap;rounded=0;" parent="J4p2vavXGs8pfv7Cpsuk-138" vertex="1">
          <mxGeometry x="804" y="13" width="60" height="30" as="geometry" />
        </mxCell>
        <mxCell id="gkwPbrtXX3RrpwLwUQac-11" value="10.0.0.21" style="text;html=1;align=center;verticalAlign=middle;whiteSpace=wrap;rounded=0;" parent="J4p2vavXGs8pfv7Cpsuk-138" vertex="1">
          <mxGeometry x="356" y="166" width="60" height="30" as="geometry" />
        </mxCell>
        <mxCell id="gkwPbrtXX3RrpwLwUQac-12" value="10.0.0.20" style="text;html=1;align=center;verticalAlign=middle;whiteSpace=wrap;rounded=0;" parent="J4p2vavXGs8pfv7Cpsuk-138" vertex="1">
          <mxGeometry x="429" y="470" width="60" height="30" as="geometry" />
        </mxCell>
        <mxCell id="gkwPbrtXX3RrpwLwUQac-13" value="10.0.0.14" style="text;html=1;align=center;verticalAlign=middle;whiteSpace=wrap;rounded=0;" parent="J4p2vavXGs8pfv7Cpsuk-138" vertex="1">
          <mxGeometry x="75" y="294" width="60" height="30" as="geometry" />
        </mxCell>
        <mxCell id="gkwPbrtXX3RrpwLwUQac-14" value="10.0.0.13" style="text;html=1;align=center;verticalAlign=middle;whiteSpace=wrap;rounded=0;" parent="J4p2vavXGs8pfv7Cpsuk-138" vertex="1">
          <mxGeometry x="350" y="414" width="60" height="30" as="geometry" />
        </mxCell>
        <mxCell id="gkwPbrtXX3RrpwLwUQac-15" value="10.0.0.12" style="text;html=1;align=center;verticalAlign=middle;whiteSpace=wrap;rounded=0;" parent="J4p2vavXGs8pfv7Cpsuk-138" vertex="1">
          <mxGeometry x="91" y="467" width="60" height="30" as="geometry" />
        </mxCell>
        <mxCell id="gkwPbrtXX3RrpwLwUQac-16" value="10.0.0.19" style="text;html=1;align=center;verticalAlign=middle;whiteSpace=wrap;rounded=0;" parent="J4p2vavXGs8pfv7Cpsuk-138" vertex="1">
          <mxGeometry x="20" y="470" width="60" height="30" as="geometry" />
        </mxCell>
        <mxCell id="gkwPbrtXX3RrpwLwUQac-18" value="10.0.0.15" style="text;html=1;align=center;verticalAlign=middle;whiteSpace=wrap;rounded=0;" parent="J4p2vavXGs8pfv7Cpsuk-138" vertex="1">
          <mxGeometry x="369" y="293" width="60" height="30" as="geometry" />
        </mxCell>
        <mxCell id="gkwPbrtXX3RrpwLwUQac-19" value="10.0.0.23" style="text;html=1;align=center;verticalAlign=middle;whiteSpace=wrap;rounded=0;" parent="J4p2vavXGs8pfv7Cpsuk-138" vertex="1">
          <mxGeometry x="652" y="13" width="60" height="30" as="geometry" />
        </mxCell>
        <mxCell id="gkwPbrtXX3RrpwLwUQac-20" value="10.0.0.26" style="text;html=1;align=center;verticalAlign=middle;whiteSpace=wrap;rounded=0;" parent="J4p2vavXGs8pfv7Cpsuk-138" vertex="1">
          <mxGeometry x="833" y="170" width="60" height="30" as="geometry" />
        </mxCell>
      </root>
    </mxGraphModel>
  </diagram>
</mxfile>
